<svg id="svg" version="1.1" xmlns="http://www.w3.org/2000/svg" xmlns:xlink="http://www.w3.org/1999/xlink" width="400" height="400" viewBox="0, 0, 400,400"><g id="svgg"><path id="path0" d="M256.214 13.977 C 256.070 14.210,254.883 14.400,253.576 14.400 C 252.259 14.400,251.200 14.578,251.200 14.800 C 251.200 15.020,250.491 15.200,249.624 15.200 C 248.757 15.200,247.936 15.380,247.800 15.600 C 247.664 15.820,247.034 16.000,246.400 16.000 C 245.766 16.000,245.136 16.180,245.000 16.400 C 244.864 16.620,244.133 16.800,243.376 16.800 C 242.619 16.800,242.000 16.980,242.000 17.200 C 242.000 17.420,241.651 17.600,241.224 17.600 C 240.797 17.600,240.336 17.780,240.200 18.000 C 240.064 18.220,239.513 18.400,238.976 18.400 C 238.439 18.400,238.000 18.580,238.000 18.800 C 238.000 19.020,237.561 19.200,237.024 19.200 C 236.487 19.200,235.936 19.380,235.800 19.600 C 235.664 19.820,235.203 20.000,234.776 20.000 C 234.349 20.000,234.000 20.180,234.000 20.400 C 234.000 20.620,233.655 20.800,233.233 20.800 C 232.812 20.800,232.407 20.935,232.333 21.100 C 232.260 21.265,231.353 21.829,230.318 22.354 C 229.282 22.878,228.075 23.643,227.634 24.054 C 227.194 24.464,226.596 24.800,226.305 24.800 C 226.014 24.800,225.517 25.160,225.200 25.600 C 224.883 26.040,224.303 26.400,223.912 26.400 C 223.520 26.400,223.200 26.558,223.200 26.751 C 223.200 26.945,222.698 27.311,222.085 27.565 C 221.472 27.819,220.190 28.740,219.235 29.613 C 218.280 30.486,217.370 31.200,217.212 31.200 C 216.533 31.200,209.200 38.896,209.200 39.608 C 209.200 39.858,208.480 40.754,207.600 41.600 C 206.720 42.446,206.000 43.331,206.000 43.569 C 206.000 43.806,205.820 44.000,205.600 44.000 C 205.380 44.000,205.200 44.270,205.200 44.600 C 205.200 44.930,205.020 45.200,204.800 45.200 C 204.580 45.200,204.400 45.388,204.400 45.617 C 204.400 45.846,204.040 46.420,203.600 46.892 C 203.160 47.364,202.800 47.987,202.800 48.275 C 202.800 48.564,202.620 48.800,202.400 48.800 C 202.180 48.800,202.000 49.160,202.000 49.600 C 202.000 50.040,201.841 50.400,201.647 50.400 C 201.452 50.400,201.184 50.715,201.050 51.100 C 200.915 51.485,200.360 52.610,199.814 53.600 C 199.269 54.590,198.817 55.715,198.811 56.100 C 198.805 56.485,198.620 56.800,198.400 56.800 C 198.180 56.800,198.000 57.160,198.000 57.600 C 198.000 58.040,197.820 58.400,197.600 58.400 C 197.380 58.400,197.200 58.814,197.200 59.320 C 197.200 59.826,197.051 60.411,196.870 60.620 C 196.688 60.829,196.310 61.810,196.031 62.800 C 195.751 63.790,195.360 64.913,195.161 65.295 C 194.962 65.677,194.800 66.496,194.800 67.115 C 194.800 67.734,194.585 68.455,194.322 68.718 C 193.988 69.052,193.791 72.041,193.671 78.598 L 193.499 88.000 199.526 88.000 C 203.112 88.000,205.653 87.838,205.800 87.600 C 205.936 87.380,206.847 87.200,207.824 87.200 C 208.801 87.200,209.600 87.020,209.600 86.800 C 209.600 86.580,210.320 86.400,211.200 86.400 C 212.080 86.400,212.800 86.220,212.800 86.000 C 212.800 85.780,213.340 85.600,214.000 85.600 C 214.660 85.600,215.200 85.420,215.200 85.200 C 215.200 84.980,215.740 84.800,216.400 84.800 C 217.060 84.800,217.600 84.620,217.600 84.400 C 217.600 84.180,217.949 84.000,218.376 84.000 C 218.803 84.000,219.264 83.820,219.400 83.600 C 219.536 83.380,219.997 83.200,220.424 83.200 C 220.851 83.200,221.200 83.020,221.200 82.800 C 221.200 82.580,221.560 82.400,222.000 82.400 C 222.440 82.400,222.800 82.220,222.800 82.000 C 222.800 81.780,223.036 81.600,223.325 81.600 C 223.613 81.600,224.236 81.240,224.708 80.800 C 225.180 80.360,225.844 80.000,226.183 80.000 C 226.522 80.000,226.800 79.820,226.800 79.600 C 226.800 79.380,227.072 79.200,227.404 79.200 C 227.736 79.200,228.572 78.660,229.263 78.000 C 229.954 77.340,230.680 76.800,230.878 76.800 C 231.075 76.800,231.686 76.350,232.236 75.800 C 232.786 75.250,233.411 74.800,233.625 74.800 C 234.169 74.800,241.600 67.387,241.600 66.844 C 241.600 66.600,242.320 65.659,243.200 64.752 C 244.080 63.845,244.800 62.895,244.800 62.640 C 244.800 62.385,245.160 61.917,245.600 61.600 C 246.040 61.283,246.400 60.769,246.400 60.459 C 246.400 60.148,246.729 59.603,247.130 59.247 C 247.532 58.891,248.116 58.015,248.428 57.300 C 248.740 56.585,249.098 56.000,249.223 56.000 C 249.348 56.000,249.698 55.370,250.000 54.600 C 250.302 53.830,250.696 53.200,250.875 53.200 C 251.054 53.200,251.200 52.935,251.200 52.612 C 251.200 52.289,251.560 51.383,252.000 50.600 C 252.440 49.817,252.800 48.911,252.800 48.588 C 252.800 48.265,252.980 48.000,253.200 48.000 C 253.420 48.000,253.600 47.651,253.600 47.224 C 253.600 46.797,253.780 46.336,254.000 46.200 C 254.220 46.064,254.400 45.513,254.400 44.976 C 254.400 44.439,254.580 44.000,254.800 44.000 C 255.020 44.000,255.200 43.460,255.200 42.800 C 255.200 42.140,255.360 41.600,255.556 41.600 C 255.752 41.600,256.005 41.015,256.119 40.300 C 256.233 39.585,256.537 38.280,256.796 37.400 C 258.153 32.787,258.850 26.153,258.709 19.200 L 258.600 13.800 257.538 13.677 C 256.954 13.609,256.358 13.744,256.214 13.977 M137.600 81.200 C 137.270 81.413,136.145 81.591,135.100 81.594 C 134.055 81.597,133.200 81.780,133.200 82.000 C 133.200 82.220,132.491 82.400,131.624 82.400 C 130.757 82.400,129.936 82.580,129.800 82.800 C 129.664 83.020,129.171 83.200,128.705 83.200 C 127.804 83.200,125.461 83.865,124.305 84.449 C 123.923 84.642,123.336 84.800,123.000 84.800 C 122.664 84.800,122.032 84.980,121.595 85.200 C 121.158 85.420,120.442 85.780,120.005 86.000 C 119.568 86.220,118.848 86.400,118.405 86.400 C 117.962 86.400,117.600 86.580,117.600 86.800 C 117.600 87.020,117.328 87.200,116.995 87.200 C 116.662 87.200,116.077 87.368,115.695 87.574 C 115.313 87.779,114.415 88.183,113.700 88.471 C 112.985 88.760,112.400 89.131,112.400 89.298 C 112.400 89.464,112.166 89.600,111.880 89.600 C 111.144 89.600,109.207 90.541,109.203 90.900 C 109.201 91.065,108.840 91.200,108.400 91.200 C 107.960 91.200,107.600 91.380,107.600 91.600 C 107.600 91.820,107.364 92.000,107.075 92.000 C 106.787 92.000,106.164 92.360,105.692 92.800 C 105.220 93.240,104.599 93.600,104.311 93.600 C 104.024 93.600,102.854 94.230,101.710 95.000 C 100.567 95.770,99.511 96.400,99.363 96.400 C 99.215 96.400,98.803 96.732,98.447 97.137 C 98.091 97.543,97.602 97.948,97.361 98.037 C 96.166 98.480,83.200 110.708,83.200 111.393 C 83.200 111.511,82.660 112.172,82.000 112.863 C 81.340 113.554,80.800 114.362,80.800 114.659 C 80.800 114.957,80.650 115.200,80.468 115.200 C 80.285 115.200,79.880 115.695,79.568 116.300 C 79.255 116.905,78.694 117.739,78.320 118.154 C 77.946 118.569,77.520 119.454,77.374 120.121 C 77.227 120.787,76.768 121.697,76.354 122.142 C 75.939 122.587,75.600 123.187,75.600 123.475 C 75.600 123.764,75.420 124.000,75.200 124.000 C 74.980 124.000,74.800 124.540,74.800 125.200 C 74.800 125.860,74.664 126.400,74.498 126.400 C 74.331 126.400,73.960 126.985,73.671 127.700 C 73.383 128.415,72.979 129.313,72.774 129.695 C 72.568 130.077,72.400 130.752,72.400 131.195 C 72.400 131.638,72.220 132.000,72.000 132.000 C 71.780 132.000,71.600 132.630,71.600 133.400 C 71.600 134.170,71.420 134.800,71.200 134.800 C 70.980 134.800,70.800 135.340,70.800 136.000 C 70.800 136.660,70.620 137.200,70.400 137.200 C 70.180 137.200,70.000 137.740,70.000 138.400 C 70.000 139.060,69.820 139.600,69.600 139.600 C 69.380 139.600,69.200 140.320,69.200 141.200 C 69.200 142.080,69.020 142.800,68.800 142.800 C 68.580 142.800,68.400 143.520,68.400 144.400 C 68.400 145.280,68.220 146.000,68.000 146.000 C 67.780 146.000,67.600 146.889,67.600 147.976 C 67.600 149.063,67.420 150.064,67.200 150.200 C 66.980 150.336,66.800 151.326,66.800 152.400 C 66.800 153.474,66.620 154.464,66.400 154.600 C 66.180 154.736,66.000 156.187,66.000 157.824 C 66.000 159.541,65.831 160.800,65.600 160.800 C 65.051 160.800,65.051 189.861,65.600 190.200 C 65.820 190.336,66.000 191.866,66.000 193.600 C 66.000 195.334,66.180 196.864,66.400 197.000 C 66.620 197.136,66.800 198.317,66.800 199.624 C 66.800 200.941,66.978 202.000,67.200 202.000 C 67.420 202.000,67.600 202.990,67.600 204.200 C 67.600 205.410,67.780 206.400,68.000 206.400 C 68.220 206.400,68.400 207.199,68.400 208.176 C 68.400 209.153,68.580 210.064,68.800 210.200 C 69.020 210.336,69.200 211.157,69.200 212.024 C 69.200 212.891,69.380 213.600,69.600 213.600 C 69.820 213.600,70.000 214.320,70.000 215.200 C 70.000 216.080,70.180 216.800,70.400 216.800 C 70.620 216.800,70.800 217.520,70.800 218.400 C 70.800 219.280,70.980 220.000,71.200 220.000 C 71.420 220.000,71.600 220.630,71.600 221.400 C 71.600 222.170,71.780 222.800,72.000 222.800 C 72.220 222.800,72.400 223.340,72.400 224.000 C 72.400 224.660,72.580 225.200,72.800 225.200 C 73.020 225.200,73.200 225.819,73.200 226.576 C 73.200 227.333,73.380 228.064,73.600 228.200 C 73.820 228.336,74.000 228.977,74.000 229.624 C 74.000 230.271,74.180 230.800,74.400 230.800 C 74.620 230.800,74.800 231.340,74.800 232.000 C 74.800 232.660,74.980 233.200,75.200 233.200 C 75.420 233.200,75.600 233.740,75.600 234.400 C 75.600 235.060,75.780 235.600,76.000 235.600 C 76.220 235.600,76.400 236.039,76.400 236.576 C 76.400 237.113,76.557 237.650,76.748 237.768 C 76.940 237.886,77.205 238.526,77.338 239.189 C 77.471 239.853,77.944 241.150,78.390 242.073 C 78.835 242.995,79.200 243.986,79.200 244.275 C 79.200 244.564,79.380 244.800,79.600 244.800 C 79.820 244.800,80.000 245.160,80.000 245.600 C 80.000 246.040,80.180 246.400,80.400 246.400 C 80.620 246.400,80.800 246.760,80.800 247.200 C 80.800 247.640,80.980 248.000,81.200 248.000 C 81.420 248.000,81.600 248.253,81.600 248.562 C 81.600 249.228,83.268 252.541,83.700 252.733 C 83.865 252.807,84.000 253.212,84.000 253.633 C 84.000 254.055,84.180 254.400,84.400 254.400 C 84.620 254.400,84.800 254.760,84.800 255.200 C 84.800 255.640,84.980 256.000,85.200 256.000 C 85.420 256.000,85.600 256.360,85.600 256.800 C 85.600 257.240,85.780 257.600,86.000 257.600 C 86.220 257.600,86.400 257.870,86.400 258.200 C 86.400 258.530,86.580 258.800,86.800 258.800 C 87.020 258.800,87.200 259.160,87.200 259.600 C 87.200 260.040,87.380 260.400,87.600 260.400 C 87.820 260.400,88.000 260.760,88.000 261.200 C 88.000 261.640,88.180 262.000,88.400 262.000 C 88.620 262.000,88.800 262.236,88.800 262.525 C 88.800 262.813,89.160 263.436,89.600 263.908 C 90.040 264.380,90.400 265.044,90.400 265.383 C 90.400 265.722,90.580 266.000,90.800 266.000 C 91.020 266.000,91.200 266.360,91.200 266.800 C 91.200 267.240,91.350 267.600,91.532 267.600 C 91.715 267.600,92.120 268.095,92.432 268.700 C 92.744 269.305,93.089 269.890,93.200 270.000 C 93.310 270.110,93.808 271.035,94.307 272.056 C 94.805 273.077,95.480 274.134,95.806 274.405 C 96.133 274.676,96.400 275.146,96.400 275.449 C 96.400 275.752,96.558 276.000,96.751 276.000 C 96.945 276.000,97.327 276.540,97.600 277.200 C 97.873 277.860,98.243 278.400,98.422 278.400 C 98.600 278.400,98.853 278.738,98.984 279.151 C 99.116 279.564,99.667 280.419,100.211 281.051 C 100.754 281.683,101.199 282.385,101.200 282.612 C 101.200 282.838,101.560 283.283,102.000 283.600 C 102.440 283.917,102.800 284.380,102.800 284.629 C 102.800 284.878,103.340 285.646,104.000 286.337 C 104.660 287.028,105.200 287.739,105.200 287.918 C 105.200 288.097,105.785 288.894,106.500 289.689 C 107.715 291.040,109.045 292.615,110.702 294.663 C 111.086 295.137,111.670 295.936,112.000 296.438 C 113.079 298.078,124.084 308.800,124.689 308.800 C 125.014 308.800,125.783 309.340,126.400 310.000 C 127.017 310.660,127.653 311.200,127.814 311.200 C 127.974 311.200,128.397 311.516,128.753 311.903 C 129.109 312.289,129.895 312.860,130.500 313.170 C 131.105 313.481,131.600 313.885,131.600 314.068 C 131.600 314.250,131.960 314.400,132.400 314.400 C 132.840 314.400,133.200 314.552,133.200 314.737 C 133.200 314.923,134.055 315.482,135.100 315.981 C 136.145 316.480,137.313 317.048,137.695 317.244 C 138.077 317.440,138.662 317.600,138.995 317.600 C 139.328 317.600,139.600 317.760,139.600 317.956 C 139.600 318.588,142.439 318.894,149.900 319.066 C 154.807 319.179,157.200 319.097,157.200 318.817 C 157.200 318.588,157.920 318.400,158.800 318.400 C 159.680 318.400,160.400 318.220,160.400 318.000 C 160.400 317.780,161.120 317.600,162.000 317.600 C 162.880 317.600,163.600 317.420,163.600 317.200 C 163.600 316.980,164.140 316.800,164.800 316.800 C 165.460 316.800,166.000 316.620,166.000 316.400 C 166.000 316.180,166.540 316.000,167.200 316.000 C 167.860 316.000,168.400 315.820,168.400 315.600 C 168.400 315.380,168.940 315.200,169.600 315.200 C 170.260 315.200,170.800 315.020,170.800 314.800 C 170.800 314.580,171.250 314.400,171.800 314.400 C 172.350 314.400,172.800 314.220,172.800 314.000 C 172.800 313.780,173.239 313.600,173.776 313.600 C 174.313 313.600,174.864 313.420,175.000 313.200 C 175.136 312.980,175.597 312.800,176.024 312.800 C 176.451 312.800,176.800 312.620,176.800 312.400 C 176.800 312.180,177.340 312.000,178.000 312.000 C 178.660 312.000,179.200 311.820,179.200 311.600 C 179.200 311.380,179.740 311.200,180.400 311.200 C 181.060 311.200,181.600 311.020,181.600 310.800 C 181.600 310.580,182.039 310.400,182.576 310.400 C 183.113 310.400,183.664 310.220,183.800 310.000 C 183.936 309.780,184.457 309.600,184.957 309.600 C 185.457 309.600,186.001 309.465,186.165 309.300 C 186.472 308.992,190.224 308.119,192.903 307.732 C 193.729 307.613,194.505 307.355,194.626 307.158 C 194.748 306.961,195.791 306.800,196.944 306.800 C 198.097 306.800,199.256 306.584,199.520 306.320 C 199.893 305.947,200.107 305.947,200.480 306.320 C 200.744 306.584,201.903 306.800,203.056 306.800 C 204.209 306.800,205.252 306.961,205.374 307.158 C 205.495 307.355,206.271 307.612,207.097 307.729 C 210.184 308.169,213.412 308.900,213.780 309.244 C 213.989 309.440,214.563 309.600,215.056 309.600 C 215.549 309.600,216.064 309.780,216.200 310.000 C 216.336 310.220,216.887 310.400,217.424 310.400 C 217.961 310.400,218.400 310.580,218.400 310.800 C 218.400 311.020,218.940 311.200,219.600 311.200 C 220.260 311.200,220.800 311.380,220.800 311.600 C 220.800 311.820,221.340 312.000,222.000 312.000 C 222.660 312.000,223.200 312.180,223.200 312.400 C 223.200 312.620,223.549 312.800,223.976 312.800 C 224.403 312.800,224.864 312.980,225.000 313.200 C 225.136 313.420,225.687 313.600,226.224 313.600 C 226.761 313.600,227.200 313.780,227.200 314.000 C 227.200 314.220,227.650 314.400,228.200 314.400 C 228.750 314.400,229.200 314.580,229.200 314.800 C 229.200 315.020,229.740 315.200,230.400 315.200 C 231.060 315.200,231.600 315.380,231.600 315.600 C 231.600 315.820,232.140 316.000,232.800 316.000 C 233.460 316.000,234.000 316.180,234.000 316.400 C 234.000 316.620,234.540 316.800,235.200 316.800 C 235.860 316.800,236.400 316.980,236.400 317.200 C 236.400 317.420,237.120 317.600,238.000 317.600 C 238.880 317.600,239.600 317.780,239.600 318.000 C 239.600 318.220,240.320 318.400,241.200 318.400 C 242.080 318.400,242.800 318.580,242.800 318.800 C 242.800 319.342,257.465 319.342,257.800 318.800 C 257.936 318.580,258.577 318.400,259.224 318.400 C 259.871 318.400,260.400 318.220,260.400 318.000 C 260.400 317.780,260.672 317.600,261.005 317.600 C 261.338 317.600,261.923 317.440,262.305 317.244 C 262.687 317.048,263.855 316.480,264.900 315.981 C 265.945 315.482,266.800 314.923,266.800 314.737 C 266.800 314.552,267.160 314.400,267.600 314.400 C 268.040 314.400,268.400 314.250,268.400 314.068 C 268.400 313.885,268.895 313.481,269.500 313.170 C 270.105 312.860,270.891 312.289,271.247 311.903 C 271.603 311.516,272.071 311.200,272.288 311.200 C 272.504 311.200,273.246 310.660,273.937 310.000 C 274.628 309.340,275.360 308.800,275.565 308.800 C 276.067 308.800,288.800 296.070,288.800 295.569 C 288.800 295.351,289.385 294.559,290.100 293.808 C 291.766 292.059,292.400 291.289,292.400 291.013 C 292.400 290.892,292.940 290.228,293.600 289.537 C 294.260 288.846,294.800 288.110,294.800 287.901 C 294.800 287.692,295.340 287.017,296.000 286.400 C 296.660 285.783,297.200 285.031,297.200 284.728 C 297.200 284.425,297.560 283.917,298.000 283.600 C 298.440 283.283,298.800 282.791,298.800 282.508 C 298.800 282.225,299.340 281.428,300.000 280.737 C 300.660 280.046,301.200 279.321,301.200 279.124 C 301.200 278.927,301.560 278.380,302.000 277.908 C 302.440 277.436,302.800 276.813,302.800 276.525 C 302.800 276.236,302.980 276.000,303.200 276.000 C 303.420 276.000,303.600 275.812,303.600 275.583 C 303.600 275.354,303.960 274.780,304.400 274.308 C 304.840 273.836,305.200 273.213,305.200 272.925 C 305.200 272.636,305.335 272.400,305.501 272.400 C 305.666 272.400,306.248 271.545,306.795 270.500 C 307.341 269.455,308.016 268.362,308.294 268.071 C 308.572 267.781,308.800 267.196,308.800 266.771 C 308.800 266.347,308.980 266.000,309.200 266.000 C 309.420 266.000,309.600 265.722,309.600 265.383 C 309.600 265.044,309.960 264.380,310.400 263.908 C 310.840 263.436,311.200 262.813,311.200 262.525 C 311.200 262.236,311.380 262.000,311.600 262.000 C 311.820 262.000,312.000 261.640,312.000 261.200 C 312.000 260.760,312.180 260.400,312.400 260.400 C 312.620 260.400,312.800 260.040,312.800 259.600 C 312.800 259.160,312.980 258.800,313.200 258.800 C 313.420 258.800,313.600 258.530,313.600 258.200 C 313.600 257.870,313.780 257.600,314.000 257.600 C 314.220 257.600,314.400 257.240,314.400 256.800 C 314.400 256.360,314.580 256.000,314.800 256.000 C 315.020 256.000,315.200 255.640,315.200 255.200 C 315.200 254.760,315.335 254.399,315.500 254.397 C 315.859 254.393,316.800 252.456,316.800 251.720 C 316.800 251.434,316.980 251.200,317.200 251.200 C 317.420 251.200,317.600 250.840,317.600 250.400 C 317.600 249.960,317.780 249.600,318.000 249.600 C 318.220 249.600,318.400 249.240,318.400 248.800 C 318.400 248.360,318.580 248.000,318.800 248.000 C 319.020 248.000,319.200 247.640,319.200 247.200 C 319.200 246.760,319.380 246.400,319.600 246.400 C 319.820 246.400,320.000 246.040,320.000 245.600 C 320.000 245.160,320.180 244.800,320.400 244.800 C 320.620 244.800,320.800 244.440,320.800 244.000 C 320.800 243.560,320.980 243.200,321.200 243.200 C 321.420 243.200,321.600 242.857,321.600 242.438 C 321.600 242.019,321.986 240.894,322.457 239.938 C 322.928 238.982,323.489 237.750,323.703 237.200 C 323.918 236.650,324.256 235.881,324.456 235.491 C 325.287 233.864,324.272 233.269,320.301 233.058 C 315.792 232.819,313.126 232.437,312.620 231.959 C 312.411 231.762,311.646 231.600,310.920 231.600 C 310.194 231.600,309.600 231.420,309.600 231.200 C 309.600 230.980,309.148 230.800,308.595 230.800 C 308.042 230.800,307.277 230.641,306.895 230.447 C 306.513 230.252,305.660 229.871,305.000 229.600 C 304.340 229.329,303.487 228.948,303.105 228.753 C 302.723 228.559,302.138 228.400,301.805 228.400 C 301.472 228.400,301.200 228.220,301.200 228.000 C 301.200 227.780,301.021 227.600,300.803 227.600 C 300.120 227.600,297.200 226.227,297.200 225.906 C 297.200 225.738,296.880 225.600,296.488 225.600 C 296.097 225.600,295.517 225.240,295.200 224.800 C 294.883 224.360,294.343 224.000,294.000 224.000 C 293.657 224.000,293.117 223.640,292.800 223.200 C 292.483 222.760,292.065 222.400,291.872 222.400 C 291.678 222.400,289.108 219.988,286.160 217.040 C 283.212 214.092,280.800 211.522,280.800 211.328 C 280.800 211.135,280.440 210.717,280.000 210.400 C 279.560 210.083,279.200 209.543,279.200 209.200 C 279.200 208.857,278.840 208.317,278.400 208.000 C 277.960 207.683,277.600 207.103,277.600 206.712 C 277.600 206.320,277.420 206.000,277.200 206.000 C 276.980 206.000,276.800 205.764,276.800 205.475 C 276.800 205.187,276.461 204.587,276.046 204.142 C 275.632 203.697,275.159 202.724,274.996 201.980 C 274.832 201.235,274.556 200.350,274.382 200.013 C 273.385 198.081,272.400 195.505,272.400 194.828 C 272.400 194.399,272.220 193.936,272.000 193.800 C 271.780 193.664,271.600 193.023,271.600 192.376 C 271.600 191.729,271.420 191.200,271.200 191.200 C 270.980 191.200,270.800 190.315,270.800 189.233 C 270.800 188.152,270.612 187.204,270.383 187.128 C 269.810 186.937,269.810 169.630,270.383 169.057 C 270.612 168.828,270.800 167.866,270.800 166.920 C 270.800 165.974,270.980 165.200,271.200 165.200 C 271.420 165.200,271.600 164.807,271.600 164.327 C 271.600 163.343,272.870 159.478,274.049 156.871 C 274.480 155.919,274.937 154.614,275.066 153.971 C 275.195 153.327,275.457 152.800,275.650 152.800 C 275.843 152.800,276.000 152.564,276.000 152.275 C 276.000 151.987,276.360 151.364,276.800 150.892 C 277.240 150.420,277.600 149.756,277.600 149.417 C 277.600 149.078,277.750 148.800,277.932 148.800 C 278.115 148.800,278.519 148.305,278.830 147.700 C 279.140 147.095,279.711 146.309,280.097 145.953 C 280.484 145.597,280.800 145.101,280.800 144.851 C 280.800 144.157,291.152 134.000,291.860 134.000 C 291.995 134.000,292.397 133.684,292.753 133.297 C 293.109 132.911,293.895 132.340,294.500 132.030 C 295.105 131.719,295.600 131.315,295.600 131.132 C 295.600 130.950,295.878 130.800,296.217 130.800 C 296.556 130.800,297.220 130.440,297.692 130.000 C 298.164 129.560,298.787 129.200,299.075 129.200 C 299.364 129.200,299.600 129.020,299.600 128.800 C 299.600 128.580,299.960 128.400,300.400 128.400 C 300.840 128.400,301.200 128.220,301.200 128.000 C 301.200 127.780,301.650 127.600,302.200 127.600 C 302.750 127.600,303.200 127.420,303.200 127.200 C 303.200 126.980,303.650 126.800,304.200 126.800 C 304.750 126.800,305.200 126.620,305.200 126.400 C 305.200 126.180,305.650 126.000,306.200 126.000 C 306.750 126.000,307.200 125.838,307.200 125.639 C 307.200 125.441,308.280 125.153,309.601 125.000 C 310.921 124.847,312.102 124.559,312.224 124.361 C 312.347 124.162,313.146 124.000,314.000 124.000 C 314.854 124.000,315.664 123.820,315.800 123.600 C 315.936 123.380,317.522 123.197,319.324 123.194 C 321.126 123.191,322.827 123.044,323.105 122.867 C 323.664 122.512,323.353 120.000,322.750 120.000 C 322.558 120.000,322.400 119.764,322.400 119.475 C 322.400 119.187,322.040 118.564,321.600 118.092 C 321.160 117.620,320.800 116.996,320.800 116.705 C 320.800 116.414,320.440 115.917,320.000 115.600 C 319.560 115.283,319.200 114.820,319.200 114.571 C 319.200 114.322,318.660 113.554,318.000 112.863 C 317.340 112.172,316.800 111.514,316.800 111.399 C 316.800 110.725,303.363 98.000,302.651 98.000 C 302.455 98.000,302.003 97.683,301.647 97.295 C 300.846 96.421,296.246 93.600,295.623 93.600 C 295.372 93.600,294.780 93.240,294.308 92.800 C 293.836 92.360,293.213 92.000,292.925 92.000 C 292.636 92.000,292.400 91.854,292.400 91.675 C 292.400 91.496,291.770 91.102,291.000 90.800 C 290.230 90.498,289.600 90.104,289.600 89.925 C 289.600 89.746,289.335 89.600,289.012 89.600 C 288.689 89.600,287.783 89.240,287.000 88.800 C 286.217 88.360,285.221 88.000,284.788 88.000 C 284.355 88.000,284.000 87.820,284.000 87.600 C 284.000 87.380,283.640 87.200,283.200 87.200 C 282.760 87.200,282.400 87.020,282.400 86.800 C 282.400 86.580,282.038 86.400,281.595 86.400 C 280.817 86.400,280.431 86.258,278.505 85.262 C 278.013 85.008,277.248 84.800,276.805 84.800 C 276.362 84.800,276.000 84.620,276.000 84.400 C 276.000 84.180,275.381 84.000,274.624 84.000 C 273.867 84.000,273.136 83.820,273.000 83.600 C 272.864 83.380,272.234 83.200,271.600 83.200 C 270.966 83.200,270.336 83.020,270.200 82.800 C 270.064 82.580,269.243 82.400,268.376 82.400 C 267.509 82.400,266.800 82.237,266.800 82.037 C 266.800 81.454,262.839 81.145,252.900 80.952 C 246.640 80.831,243.600 80.907,243.600 81.186 C 243.600 81.416,242.712 81.600,241.600 81.600 C 240.500 81.600,239.600 81.780,239.600 82.000 C 239.600 82.220,238.880 82.400,238.000 82.400 C 237.120 82.400,236.400 82.580,236.400 82.800 C 236.400 83.020,235.871 83.200,235.224 83.200 C 234.577 83.200,233.936 83.380,233.800 83.600 C 233.664 83.820,233.023 84.000,232.376 84.000 C 231.729 84.000,231.200 84.180,231.200 84.400 C 231.200 84.620,230.750 84.800,230.200 84.800 C 229.650 84.800,229.200 84.980,229.200 85.200 C 229.200 85.420,228.750 85.600,228.200 85.600 C 227.650 85.600,227.200 85.780,227.200 86.000 C 227.200 86.220,226.660 86.400,226.000 86.400 C 225.340 86.400,224.800 86.580,224.800 86.800 C 224.800 87.020,224.440 87.200,224.000 87.200 C 223.560 87.200,223.200 87.380,223.200 87.600 C 223.200 87.820,222.660 88.000,222.000 88.000 C 221.340 88.000,220.800 88.180,220.800 88.400 C 220.800 88.620,220.440 88.800,220.000 88.800 C 219.560 88.800,219.200 88.980,219.200 89.200 C 219.200 89.420,218.761 89.600,218.224 89.600 C 217.687 89.600,217.136 89.780,217.000 90.000 C 216.864 90.220,216.313 90.400,215.776 90.400 C 215.239 90.400,214.800 90.580,214.800 90.800 C 214.800 91.020,214.350 91.200,213.800 91.200 C 213.250 91.200,212.800 91.380,212.800 91.600 C 212.800 91.820,212.260 92.000,211.600 92.000 C 210.940 92.000,210.400 92.180,210.400 92.400 C 210.400 92.620,209.785 92.800,209.033 92.800 C 208.282 92.800,207.592 93.024,207.501 93.297 C 207.377 93.670,205.492 93.795,200.000 93.795 C 194.508 93.795,192.623 93.670,192.499 93.297 C 192.408 93.024,191.718 92.800,190.967 92.800 C 190.215 92.800,189.600 92.620,189.600 92.400 C 189.600 92.180,189.060 92.000,188.400 92.000 C 187.740 92.000,187.200 91.820,187.200 91.600 C 187.200 91.380,186.750 91.200,186.200 91.200 C 185.650 91.200,185.200 91.020,185.200 90.800 C 185.200 90.580,184.750 90.400,184.200 90.400 C 183.650 90.400,183.200 90.220,183.200 90.000 C 183.200 89.780,182.660 89.600,182.000 89.600 C 181.340 89.600,180.800 89.420,180.800 89.200 C 180.800 88.980,180.440 88.800,180.000 88.800 C 179.560 88.800,179.200 88.620,179.200 88.400 C 179.200 88.180,178.660 88.000,178.000 88.000 C 177.340 88.000,176.800 87.820,176.800 87.600 C 176.800 87.380,176.440 87.200,176.000 87.200 C 175.560 87.200,175.200 87.020,175.200 86.800 C 175.200 86.580,174.761 86.400,174.224 86.400 C 173.687 86.400,173.136 86.220,173.000 86.000 C 172.864 85.780,172.313 85.600,171.776 85.600 C 171.239 85.600,170.800 85.420,170.800 85.200 C 170.800 84.980,170.350 84.800,169.800 84.800 C 169.250 84.800,168.800 84.620,168.800 84.400 C 168.800 84.180,168.361 84.000,167.824 84.000 C 167.287 84.000,166.736 83.820,166.600 83.600 C 166.464 83.380,165.733 83.200,164.976 83.200 C 164.219 83.200,163.600 83.020,163.600 82.800 C 163.600 82.580,162.880 82.400,162.000 82.400 C 161.120 82.400,160.400 82.220,160.400 82.000 C 160.400 81.780,159.500 81.600,158.400 81.600 C 157.300 81.600,156.400 81.420,156.400 81.200 C 156.400 80.671,138.419 80.671,137.600 81.200 " stroke="none" fill="#34343c" fill-rule="evenodd"></path><path id="path1" d="" stroke="none" fill="#38343c" fill-rule="evenodd"></path><path id="path2" d="" stroke="none" fill="#38343c" fill-rule="evenodd"></path><path id="path3" d="" stroke="none" fill="#38343c" fill-rule="evenodd"></path><path id="path4" d="" stroke="none" fill="#38343c" fill-rule="evenodd"></path></g></svg>