<svg id="svg" version="1.1" xmlns="http://www.w3.org/2000/svg" xmlns:xlink="http://www.w3.org/1999/xlink" width="400" height="400" viewBox="0, 0, 400,400"><g id="svgg"><path id="path0" d="M246.492 111.500 C 245.300 113.221,244.305 116.387,243.193 122.000 C 242.997 122.990,242.665 124.610,242.455 125.600 C 240.789 133.468,239.948 138.765,238.363 151.400 C 236.522 166.074,238.027 175.064,241.708 171.383 C 243.219 169.872,245.153 165.517,246.321 161.000 C 247.304 157.193,247.565 156.066,247.989 153.800 C 248.236 152.480,248.595 150.590,248.787 149.600 C 249.695 144.916,250.100 140.557,250.984 125.954 C 251.188 122.580,250.612 114.274,250.022 112.081 C 249.449 109.955,247.756 109.676,246.492 111.500 M284.979 119.382 C 283.037 120.198,276.967 127.325,272.528 134.000 C 268.206 140.498,260.400 154.562,260.400 155.850 C 260.400 156.152,260.220 156.400,260.000 156.400 C 259.780 156.400,259.600 156.672,259.600 157.005 C 259.600 157.338,259.423 157.923,259.206 158.305 C 257.937 160.544,256.128 165.174,254.391 170.628 C 253.785 172.531,253.913 176.097,254.623 177.111 C 255.912 178.951,260.980 177.454,262.391 174.816 C 262.613 174.402,263.021 173.823,263.297 173.531 C 264.647 172.105,266.152 169.243,271.993 157.000 C 273.568 153.700,276.359 147.940,278.196 144.200 C 281.589 137.294,282.279 135.802,284.188 131.241 C 288.309 121.399,288.543 117.883,284.979 119.382 M169.600 124.876 C 161.836 128.149,159.118 132.248,158.641 141.400 C 158.205 149.761,159.617 157.687,163.329 167.702 C 165.267 172.931,165.031 175.200,162.550 175.200 C 159.782 175.200,156.952 172.341,155.223 167.800 C 154.720 166.480,154.077 164.860,153.793 164.200 C 153.509 163.540,152.789 161.830,152.195 160.400 C 146.116 145.788,141.288 140.230,132.741 138.003 C 129.677 137.205,122.800 140.167,122.800 142.285 C 122.800 142.485,122.478 142.998,122.083 143.425 C 121.339 144.230,119.978 147.418,119.181 150.223 C 118.880 151.280,118.794 153.786,118.932 157.423 C 119.133 162.717,119.399 164.797,120.375 168.700 C 121.402 172.807,121.667 173.905,122.041 175.600 C 122.259 176.590,122.590 178.390,122.777 179.600 C 122.964 180.810,123.250 182.127,123.412 182.527 C 123.574 182.927,123.521 183.647,123.294 184.127 C 123.066 184.607,122.664 185.630,122.400 186.400 C 122.136 187.170,121.776 188.160,121.600 188.600 C 121.424 189.040,121.064 190.030,120.800 190.800 C 120.536 191.570,120.170 192.560,119.988 193.000 C 119.395 194.432,117.595 199.695,116.020 204.600 C 113.625 212.061,112.888 215.477,111.577 225.200 C 111.129 228.519,111.259 241.526,111.774 245.000 C 112.599 250.565,112.954 252.568,113.649 255.600 C 118.208 275.490,128.348 285.537,146.707 288.354 C 150.233 288.895,159.053 288.939,162.033 288.430 C 163.225 288.227,165.640 287.850,167.400 287.592 C 174.395 286.568,186.233 283.963,193.600 281.827 C 197.102 280.811,203.726 278.735,204.600 278.378 C 205.040 278.199,206.570 277.669,208.000 277.200 C 210.630 276.337,212.031 275.796,213.295 275.153 C 213.677 274.959,214.167 274.800,214.385 274.800 C 214.602 274.800,215.959 274.260,217.400 273.600 C 218.841 272.940,220.101 272.400,220.200 272.400 C 220.299 272.400,221.509 271.883,222.890 271.251 C 224.270 270.618,227.447 269.166,229.950 268.023 C 239.661 263.587,249.130 258.680,256.640 254.193 C 262.258 250.836,270.650 245.283,272.801 243.499 C 273.132 243.224,274.212 242.370,275.201 241.600 C 284.704 234.203,288.914 227.489,288.890 219.769 C 288.854 208.535,276.710 195.767,260.200 189.606 C 259.760 189.441,258.860 189.079,258.200 188.800 C 257.540 188.521,256.595 188.137,256.100 187.946 C 255.605 187.756,254.795 187.433,254.300 187.229 C 247.412 184.390,234.240 180.401,227.600 179.143 C 226.390 178.914,224.590 178.563,223.600 178.365 C 215.481 176.736,208.044 175.716,196.000 174.580 C 192.697 174.268,191.200 173.382,191.200 171.738 C 191.200 171.230,191.023 169.597,190.807 168.107 C 190.590 166.618,190.230 160.630,190.007 154.800 C 189.223 134.348,186.380 127.878,176.840 124.834 C 175.140 124.291,170.929 124.316,169.600 124.876 " stroke="none" fill="#f2f3f3" fill-rule="evenodd"></path><path id="path1" d="M184.800 56.400 C 184.800 56.631,183.533 56.800,181.800 56.800 C 180.067 56.800,178.800 56.969,178.800 57.200 C 178.800 57.422,177.733 57.600,176.400 57.600 C 175.067 57.600,174.000 57.778,174.000 58.000 C 174.000 58.220,173.111 58.400,172.024 58.400 C 170.937 58.400,169.936 58.580,169.800 58.800 C 169.664 59.020,168.931 59.200,168.171 59.200 C 167.411 59.200,166.477 59.371,166.095 59.580 C 165.713 59.790,164.368 60.072,163.106 60.208 C 161.845 60.345,160.709 60.623,160.583 60.828 C 160.456 61.033,159.834 61.200,159.200 61.200 C 158.566 61.200,157.936 61.380,157.800 61.600 C 157.664 61.820,157.124 62.000,156.600 62.000 C 156.076 62.000,155.536 62.180,155.400 62.400 C 155.264 62.620,154.623 62.800,153.976 62.800 C 153.329 62.800,152.800 62.980,152.800 63.200 C 152.800 63.420,152.361 63.600,151.824 63.600 C 151.287 63.600,150.736 63.780,150.600 64.000 C 150.464 64.220,150.020 64.400,149.614 64.400 C 148.976 64.400,147.798 64.892,144.705 66.450 C 144.323 66.643,143.738 66.800,143.405 66.800 C 143.072 66.800,142.800 66.980,142.800 67.200 C 142.800 67.420,142.440 67.600,142.000 67.600 C 141.560 67.600,141.200 67.780,141.200 68.000 C 141.200 68.220,140.851 68.400,140.424 68.400 C 139.997 68.400,139.536 68.580,139.400 68.800 C 139.264 69.020,138.713 69.200,138.176 69.200 C 137.639 69.200,137.200 69.380,137.200 69.600 C 137.200 69.820,136.840 70.000,136.400 70.000 C 135.960 70.000,135.600 70.180,135.600 70.400 C 135.600 70.620,135.240 70.800,134.800 70.800 C 134.360 70.800,134.000 70.980,134.000 71.200 C 134.000 71.420,133.730 71.600,133.400 71.600 C 133.070 71.600,132.800 71.780,132.800 72.000 C 132.800 72.220,132.440 72.400,132.000 72.400 C 131.560 72.400,131.200 72.580,131.200 72.800 C 131.200 73.020,130.930 73.200,130.600 73.200 C 130.270 73.200,130.000 73.380,130.000 73.600 C 130.000 73.820,129.640 74.000,129.200 74.000 C 128.760 74.000,128.400 74.180,128.400 74.400 C 128.400 74.620,128.130 74.800,127.800 74.800 C 127.470 74.800,127.200 74.980,127.200 75.200 C 127.200 75.420,126.880 75.600,126.488 75.600 C 126.097 75.600,125.517 75.960,125.200 76.400 C 124.883 76.840,124.316 77.200,123.940 77.200 C 123.565 77.200,123.012 77.425,122.713 77.700 C 122.205 78.167,121.815 78.410,119.504 79.700 C 119.012 79.975,118.337 80.471,118.004 80.803 C 117.672 81.134,116.905 81.660,116.300 81.970 C 115.695 82.281,115.200 82.685,115.200 82.868 C 115.200 83.050,114.930 83.200,114.600 83.200 C 114.270 83.200,114.000 83.380,114.000 83.600 C 114.000 83.820,113.823 84.000,113.607 84.000 C 113.210 84.000,111.858 85.120,109.380 87.500 C 108.636 88.215,107.863 88.800,107.662 88.800 C 106.690 88.800,88.800 106.690,88.800 107.662 C 88.800 107.863,88.215 108.636,87.500 109.380 C 85.120 111.858,84.000 113.210,84.000 113.607 C 84.000 113.823,83.820 114.000,83.600 114.000 C 83.380 114.000,83.200 114.270,83.200 114.600 C 83.200 114.930,83.050 115.200,82.868 115.200 C 82.685 115.200,82.281 115.695,81.970 116.300 C 81.660 116.905,81.134 117.672,80.803 118.004 C 80.471 118.337,79.975 119.012,79.700 119.504 C 78.410 121.815,78.167 122.205,77.700 122.713 C 77.425 123.012,77.200 123.565,77.200 123.940 C 77.200 124.316,76.840 124.883,76.400 125.200 C 75.960 125.517,75.600 126.097,75.600 126.488 C 75.600 126.880,75.420 127.200,75.200 127.200 C 74.980 127.200,74.800 127.470,74.800 127.800 C 74.800 128.130,74.620 128.400,74.400 128.400 C 74.180 128.400,74.000 128.760,74.000 129.200 C 74.000 129.640,73.820 130.000,73.600 130.000 C 73.380 130.000,73.200 130.270,73.200 130.600 C 73.200 130.930,73.054 131.200,72.875 131.200 C 72.696 131.200,72.302 131.830,72.000 132.600 C 71.698 133.370,71.304 134.000,71.125 134.000 C 70.946 134.000,70.800 134.360,70.800 134.800 C 70.800 135.240,70.620 135.600,70.400 135.600 C 70.180 135.600,70.000 135.960,70.000 136.400 C 70.000 136.840,69.820 137.200,69.600 137.200 C 69.380 137.200,69.200 137.639,69.200 138.176 C 69.200 138.713,69.020 139.264,68.800 139.400 C 68.580 139.536,68.400 139.997,68.400 140.424 C 68.400 140.851,68.220 141.200,68.000 141.200 C 67.780 141.200,67.600 141.560,67.600 142.000 C 67.600 142.440,67.420 142.800,67.200 142.800 C 66.980 142.800,66.800 143.160,66.800 143.600 C 66.800 144.040,66.620 144.400,66.400 144.400 C 66.180 144.400,66.000 144.850,66.000 145.400 C 66.000 145.950,65.820 146.400,65.600 146.400 C 65.380 146.400,65.200 146.749,65.200 147.176 C 65.200 147.603,65.020 148.064,64.800 148.200 C 64.580 148.336,64.400 148.876,64.400 149.400 C 64.400 149.924,64.220 150.464,64.000 150.600 C 63.780 150.736,63.600 151.287,63.600 151.824 C 63.600 152.361,63.420 152.800,63.200 152.800 C 62.980 152.800,62.800 153.329,62.800 153.976 C 62.800 154.623,62.620 155.264,62.400 155.400 C 62.180 155.536,62.000 156.076,62.000 156.600 C 62.000 157.124,61.820 157.664,61.600 157.800 C 61.380 157.936,61.200 158.566,61.200 159.200 C 61.200 159.834,61.033 160.456,60.828 160.583 C 60.623 160.709,60.345 161.845,60.208 163.106 C 60.072 164.368,59.790 165.713,59.580 166.095 C 59.371 166.477,59.200 167.512,59.200 168.395 C 59.200 169.278,59.020 170.000,58.800 170.000 C 58.580 170.000,58.400 170.900,58.400 172.000 C 58.400 173.100,58.220 174.000,58.000 174.000 C 57.780 174.000,57.600 174.979,57.600 176.176 C 57.600 177.373,57.420 178.464,57.200 178.600 C 56.980 178.736,56.800 180.187,56.800 181.824 C 56.800 183.541,56.631 184.800,56.400 184.800 C 56.140 184.800,56.000 190.133,56.000 200.000 C 56.000 209.867,56.140 215.200,56.400 215.200 C 56.633 215.200,56.800 216.533,56.800 218.400 C 56.800 220.267,56.967 221.600,57.200 221.600 C 57.420 221.600,57.600 222.590,57.600 223.800 C 57.600 225.010,57.780 226.000,58.000 226.000 C 58.220 226.000,58.400 226.900,58.400 228.000 C 58.400 229.100,58.580 230.000,58.800 230.000 C 59.020 230.000,59.200 230.900,59.200 232.000 C 59.200 233.100,59.354 234.000,59.543 234.000 C 59.732 234.000,60.003 235.117,60.146 236.482 C 60.288 237.848,60.584 239.144,60.802 239.362 C 61.021 239.581,61.200 240.253,61.200 240.856 C 61.200 241.459,61.380 242.064,61.600 242.200 C 61.820 242.336,62.000 242.876,62.000 243.400 C 62.000 243.924,62.180 244.464,62.400 244.600 C 62.620 244.736,62.800 245.377,62.800 246.024 C 62.800 246.671,62.980 247.200,63.200 247.200 C 63.420 247.200,63.600 247.639,63.600 248.176 C 63.600 248.713,63.744 249.242,63.921 249.351 C 64.097 249.460,64.490 250.461,64.793 251.575 C 65.096 252.689,65.492 253.600,65.672 253.600 C 65.853 253.600,66.000 254.050,66.000 254.600 C 66.000 255.150,66.180 255.600,66.400 255.600 C 66.620 255.600,66.800 255.872,66.800 256.205 C 66.800 256.795,67.563 258.398,68.035 258.800 C 68.164 258.910,68.518 259.855,68.822 260.900 C 69.126 261.945,69.515 262.800,69.687 262.800 C 69.859 262.800,70.000 263.160,70.000 263.600 C 70.000 264.040,70.180 264.400,70.400 264.400 C 70.620 264.400,70.800 264.745,70.800 265.167 C 70.800 265.588,70.935 265.993,71.100 266.067 C 71.265 266.140,71.833 267.055,72.363 268.100 C 72.892 269.145,73.477 270.000,73.663 270.000 C 73.848 270.000,74.000 270.360,74.000 270.800 C 74.000 271.240,74.136 271.600,74.302 271.600 C 74.469 271.600,74.860 272.185,75.172 272.900 C 75.484 273.615,76.068 274.491,76.470 274.847 C 76.871 275.203,77.200 275.775,77.200 276.118 C 77.200 276.462,77.425 276.988,77.700 277.287 C 78.167 277.795,78.410 278.185,79.700 280.496 C 79.975 280.988,80.471 281.663,80.803 281.996 C 81.134 282.328,81.660 283.095,81.970 283.700 C 82.281 284.305,82.685 284.800,82.868 284.800 C 83.050 284.800,83.200 285.035,83.200 285.322 C 83.200 285.609,83.839 286.541,84.620 287.394 C 85.401 288.247,86.340 289.452,86.706 290.073 C 87.073 290.693,87.694 291.303,88.087 291.427 C 88.479 291.552,88.800 291.890,88.800 292.178 C 88.800 293.348,106.537 311.200,107.700 311.200 C 107.880 311.200,108.636 311.785,109.380 312.500 C 111.858 314.880,113.210 316.000,113.607 316.000 C 113.823 316.000,114.000 316.180,114.000 316.400 C 114.000 316.620,114.270 316.800,114.600 316.800 C 114.930 316.800,115.200 316.950,115.200 317.132 C 115.200 317.315,115.695 317.719,116.300 318.030 C 116.905 318.340,117.670 318.867,118.000 319.200 C 118.330 319.533,119.095 320.060,119.700 320.370 C 120.305 320.681,120.800 321.085,120.800 321.268 C 120.800 321.450,121.078 321.600,121.417 321.600 C 121.756 321.600,122.420 321.960,122.892 322.400 C 123.364 322.840,123.987 323.200,124.275 323.200 C 124.564 323.200,124.800 323.362,124.800 323.560 C 124.800 323.759,125.609 324.254,126.599 324.660 C 127.588 325.067,128.398 325.535,128.399 325.700 C 128.399 325.865,128.760 326.000,129.200 326.000 C 129.640 326.000,130.000 326.180,130.000 326.400 C 130.000 326.620,130.270 326.800,130.600 326.800 C 130.930 326.800,131.201 326.935,131.201 327.100 C 131.202 327.265,132.192 327.850,133.400 328.400 C 134.608 328.950,135.598 329.535,135.599 329.700 C 135.599 329.865,135.872 330.000,136.205 330.000 C 136.538 330.000,137.168 330.180,137.605 330.400 C 138.042 330.620,138.758 330.980,139.195 331.200 C 139.632 331.420,140.262 331.600,140.595 331.600 C 140.928 331.600,141.200 331.780,141.200 332.000 C 141.200 332.220,141.560 332.400,142.000 332.400 C 142.440 332.400,142.800 332.580,142.800 332.800 C 142.800 333.020,143.160 333.200,143.600 333.200 C 144.040 333.200,144.400 333.380,144.400 333.600 C 144.400 333.820,144.850 334.000,145.400 334.000 C 145.950 334.000,146.400 334.180,146.400 334.400 C 146.400 334.620,146.850 334.800,147.400 334.800 C 147.950 334.800,148.400 334.980,148.400 335.200 C 148.400 335.420,148.839 335.600,149.376 335.600 C 149.913 335.600,150.464 335.780,150.600 336.000 C 150.736 336.220,151.287 336.400,151.824 336.400 C 152.361 336.400,152.800 336.580,152.800 336.800 C 152.800 337.020,153.340 337.200,154.000 337.200 C 154.660 337.200,155.200 337.380,155.200 337.600 C 155.200 337.820,155.740 338.000,156.400 338.000 C 157.060 338.000,157.600 338.180,157.600 338.400 C 157.600 338.620,158.219 338.800,158.976 338.800 C 159.733 338.800,160.451 338.959,160.571 339.154 C 160.692 339.349,161.287 339.610,161.895 339.736 C 162.503 339.861,163.855 340.152,164.900 340.382 C 169.006 341.285,170.667 341.553,172.300 341.576 C 173.235 341.589,174.000 341.780,174.000 342.000 C 174.000 342.222,175.067 342.400,176.400 342.400 C 177.733 342.400,178.800 342.578,178.800 342.800 C 178.800 343.031,180.067 343.200,181.800 343.200 C 183.533 343.200,184.800 343.369,184.800 343.600 C 184.800 343.860,190.133 344.000,200.000 344.000 C 209.867 344.000,215.200 343.860,215.200 343.600 C 215.200 343.367,216.533 343.200,218.400 343.200 C 220.267 343.200,221.600 343.033,221.600 342.800 C 221.600 342.580,222.590 342.400,223.800 342.400 C 225.010 342.400,226.000 342.254,226.000 342.075 C 226.000 341.896,227.665 341.554,229.700 341.315 C 231.735 341.076,234.210 340.670,235.200 340.412 C 236.190 340.153,237.585 339.846,238.300 339.727 C 239.015 339.609,239.600 339.352,239.600 339.156 C 239.600 338.960,240.230 338.800,241.000 338.800 C 241.770 338.800,242.400 338.620,242.400 338.400 C 242.400 338.180,242.940 338.000,243.600 338.000 C 244.260 338.000,244.800 337.820,244.800 337.600 C 244.800 337.380,245.340 337.200,246.000 337.200 C 246.660 337.200,247.200 337.020,247.200 336.800 C 247.200 336.580,247.740 336.400,248.400 336.400 C 249.060 336.400,249.600 336.220,249.600 336.000 C 249.600 335.780,250.039 335.600,250.576 335.600 C 251.113 335.600,251.664 335.420,251.800 335.200 C 251.936 334.980,252.397 334.800,252.824 334.800 C 253.251 334.800,253.600 334.620,253.600 334.400 C 253.600 334.180,253.943 334.000,254.362 334.000 C 255.178 334.000,258.512 332.399,258.733 331.900 C 258.807 331.735,259.291 331.600,259.810 331.600 C 260.328 331.600,260.864 331.420,261.000 331.200 C 261.136 330.980,261.597 330.800,262.024 330.800 C 262.451 330.800,262.800 330.620,262.800 330.400 C 262.800 330.180,263.160 330.000,263.600 330.000 C 264.040 330.000,264.400 329.820,264.400 329.600 C 264.400 329.380,264.745 329.200,265.167 329.200 C 265.588 329.200,265.993 329.065,266.067 328.900 C 266.140 328.735,267.055 328.167,268.100 327.637 C 269.145 327.108,270.000 326.523,270.000 326.337 C 270.000 326.152,270.360 326.000,270.800 326.000 C 271.240 326.000,271.601 325.865,271.601 325.700 C 271.602 325.535,272.412 325.067,273.401 324.660 C 274.391 324.254,275.200 323.759,275.200 323.560 C 275.200 323.362,275.436 323.200,275.725 323.200 C 276.013 323.200,276.636 322.840,277.108 322.400 C 277.580 321.960,278.244 321.600,278.583 321.600 C 278.922 321.600,279.200 321.450,279.200 321.268 C 279.200 321.085,279.695 320.681,280.300 320.370 C 280.905 320.060,281.691 319.489,282.047 319.103 C 282.403 318.716,282.948 318.400,283.259 318.400 C 283.569 318.400,284.083 318.040,284.400 317.600 C 284.717 317.160,285.180 316.800,285.429 316.800 C 285.678 316.800,286.446 316.260,287.137 315.600 C 287.828 314.940,288.574 314.400,288.796 314.400 C 289.018 314.400,289.200 314.250,289.200 314.068 C 289.200 313.885,289.647 313.496,290.193 313.204 C 290.740 312.911,291.292 312.341,291.420 311.936 C 291.549 311.531,291.873 311.200,292.141 311.200 C 293.526 311.200,311.200 293.526,311.200 292.141 C 311.200 291.873,311.521 291.552,311.913 291.427 C 312.306 291.303,312.927 290.693,313.294 290.073 C 313.660 289.452,314.599 288.247,315.380 287.394 C 316.161 286.541,316.800 285.649,316.800 285.410 C 316.800 285.172,317.160 284.717,317.600 284.400 C 318.040 284.083,318.400 283.569,318.400 283.259 C 318.400 282.948,318.716 282.403,319.103 282.047 C 319.489 281.691,320.060 280.905,320.370 280.300 C 320.681 279.695,321.085 279.200,321.268 279.200 C 321.450 279.200,321.600 278.922,321.600 278.583 C 321.600 278.244,321.960 277.580,322.400 277.108 C 322.840 276.636,323.200 276.013,323.200 275.725 C 323.200 275.436,323.362 275.200,323.560 275.200 C 323.759 275.200,324.254 274.391,324.660 273.401 C 325.067 272.412,325.535 271.602,325.700 271.601 C 325.865 271.601,326.000 271.240,326.000 270.800 C 326.000 270.360,326.180 270.000,326.400 270.000 C 326.620 270.000,326.800 269.730,326.800 269.400 C 326.800 269.070,326.946 268.800,327.125 268.800 C 327.304 268.800,327.698 268.170,328.000 267.400 C 328.302 266.630,328.696 266.000,328.875 266.000 C 329.054 266.000,329.200 265.640,329.200 265.200 C 329.200 264.760,329.380 264.400,329.600 264.400 C 329.820 264.400,330.000 264.040,330.000 263.600 C 330.000 263.160,330.141 262.800,330.313 262.800 C 330.485 262.800,330.874 261.945,331.178 260.900 C 331.482 259.855,331.836 258.910,331.965 258.800 C 332.437 258.398,333.200 256.795,333.200 256.205 C 333.200 255.872,333.380 255.600,333.600 255.600 C 333.820 255.600,334.000 255.150,334.000 254.600 C 334.000 254.050,334.180 253.600,334.400 253.600 C 334.620 253.600,334.800 253.251,334.800 252.824 C 334.800 252.397,334.980 251.936,335.200 251.800 C 335.420 251.664,335.600 251.113,335.600 250.576 C 335.600 250.039,335.780 249.600,336.000 249.600 C 336.220 249.600,336.400 249.060,336.400 248.400 C 336.400 247.740,336.580 247.200,336.800 247.200 C 337.020 247.200,337.200 246.660,337.200 246.000 C 337.200 245.340,337.380 244.800,337.600 244.800 C 337.820 244.800,338.000 244.260,338.000 243.600 C 338.000 242.940,338.180 242.400,338.400 242.400 C 338.620 242.400,338.800 241.858,338.800 241.195 C 338.800 240.532,338.962 239.677,339.161 239.295 C 339.360 238.913,339.732 237.790,339.988 236.800 C 340.244 235.810,340.616 234.460,340.813 233.800 C 341.010 233.140,341.294 231.115,341.443 229.300 C 341.593 227.485,341.869 226.000,342.058 226.000 C 342.246 226.000,342.400 225.010,342.400 223.800 C 342.400 222.590,342.580 221.600,342.800 221.600 C 343.033 221.600,343.200 220.267,343.200 218.400 C 343.200 216.533,343.367 215.200,343.600 215.200 C 343.860 215.200,344.000 209.867,344.000 200.000 C 344.000 190.133,343.860 184.800,343.600 184.800 C 343.369 184.800,343.200 183.541,343.200 181.824 C 343.200 180.187,343.020 178.736,342.800 178.600 C 342.580 178.464,342.400 177.373,342.400 176.176 C 342.400 174.979,342.243 174.000,342.052 174.000 C 341.860 174.000,341.577 172.382,341.422 170.405 C 341.267 168.428,340.974 166.708,340.770 166.582 C 340.567 166.456,340.400 165.881,340.400 165.305 C 340.400 164.234,339.780 161.951,339.151 160.705 C 338.958 160.323,338.800 159.468,338.800 158.805 C 338.800 158.142,338.620 157.600,338.400 157.600 C 338.180 157.600,338.000 157.060,338.000 156.400 C 338.000 155.740,337.820 155.200,337.600 155.200 C 337.380 155.200,337.200 154.660,337.200 154.000 C 337.200 153.340,337.020 152.800,336.800 152.800 C 336.580 152.800,336.400 152.260,336.400 151.600 C 336.400 150.940,336.220 150.400,336.000 150.400 C 335.780 150.400,335.600 149.950,335.600 149.400 C 335.600 148.850,335.420 148.400,335.200 148.400 C 334.980 148.400,334.800 147.950,334.800 147.400 C 334.800 146.850,334.620 146.400,334.400 146.400 C 334.180 146.400,334.000 145.950,334.000 145.400 C 334.000 144.850,333.820 144.400,333.600 144.400 C 333.380 144.400,333.200 144.040,333.200 143.600 C 333.200 143.160,333.020 142.800,332.800 142.800 C 332.580 142.800,332.400 142.440,332.400 142.000 C 332.400 141.560,332.220 141.200,332.000 141.200 C 331.780 141.200,331.600 140.761,331.600 140.224 C 331.600 139.687,331.420 139.136,331.200 139.000 C 330.980 138.864,330.800 138.403,330.800 137.976 C 330.800 137.549,330.620 137.200,330.400 137.200 C 330.180 137.200,330.000 136.840,330.000 136.400 C 330.000 135.960,329.820 135.600,329.600 135.600 C 329.380 135.600,329.200 135.240,329.200 134.800 C 329.200 134.360,329.054 134.000,328.875 134.000 C 328.696 134.000,328.302 133.370,328.000 132.600 C 327.698 131.830,327.304 131.200,327.125 131.200 C 326.946 131.200,326.800 130.930,326.800 130.600 C 326.800 130.270,326.620 130.000,326.400 130.000 C 326.180 130.000,326.000 129.640,326.000 129.200 C 326.000 128.760,325.865 128.399,325.700 128.399 C 325.535 128.398,325.067 127.588,324.660 126.599 C 324.254 125.609,323.759 124.800,323.560 124.800 C 323.362 124.800,323.200 124.564,323.200 124.275 C 323.200 123.987,322.840 123.364,322.400 122.892 C 321.960 122.420,321.600 121.756,321.600 121.417 C 321.600 121.078,321.450 120.800,321.268 120.800 C 321.085 120.800,320.681 120.305,320.370 119.700 C 320.060 119.095,319.489 118.309,319.103 117.953 C 318.716 117.597,318.400 117.052,318.400 116.741 C 318.400 116.431,318.040 115.917,317.600 115.600 C 317.160 115.283,316.800 114.793,316.800 114.512 C 316.800 114.230,316.620 114.000,316.400 114.000 C 316.180 114.000,316.000 113.770,316.000 113.488 C 316.000 113.207,315.640 112.717,315.200 112.400 C 314.760 112.083,314.400 111.669,314.400 111.480 C 314.400 111.292,313.680 110.446,312.800 109.600 C 311.920 108.754,311.200 107.907,311.200 107.718 C 311.200 106.540,293.362 88.800,292.178 88.800 C 291.890 88.800,291.552 88.479,291.427 88.087 C 291.303 87.694,290.693 87.073,290.073 86.706 C 289.452 86.340,288.247 85.401,287.394 84.620 C 286.541 83.839,285.649 83.200,285.410 83.200 C 285.172 83.200,284.717 82.840,284.400 82.400 C 284.083 81.960,283.585 81.600,283.294 81.600 C 283.002 81.600,282.328 81.164,281.795 80.631 C 281.262 80.098,280.460 79.546,280.013 79.404 C 279.566 79.262,279.200 78.978,279.200 78.773 C 279.200 78.568,278.840 78.400,278.400 78.400 C 277.960 78.400,277.600 78.223,277.600 78.008 C 277.600 77.792,277.105 77.493,276.500 77.344 C 275.895 77.194,275.130 76.772,274.800 76.406 C 274.470 76.039,273.615 75.484,272.900 75.172 C 272.185 74.860,271.600 74.469,271.600 74.302 C 271.600 74.136,271.240 74.000,270.800 74.000 C 270.360 74.000,270.000 73.848,270.000 73.663 C 270.000 73.477,269.145 72.892,268.100 72.363 C 267.055 71.833,266.140 71.265,266.067 71.100 C 265.993 70.935,265.588 70.800,265.167 70.800 C 264.745 70.800,264.400 70.620,264.400 70.400 C 264.400 70.180,264.040 70.000,263.600 70.000 C 263.160 70.000,262.800 69.859,262.800 69.687 C 262.800 69.515,261.945 69.126,260.900 68.822 C 259.855 68.518,258.910 68.164,258.800 68.035 C 258.346 67.503,255.069 66.000,254.362 66.000 C 253.943 66.000,253.600 65.820,253.600 65.600 C 253.600 65.380,253.251 65.200,252.824 65.200 C 252.397 65.200,251.936 65.020,251.800 64.800 C 251.664 64.580,251.113 64.400,250.576 64.400 C 250.039 64.400,249.600 64.220,249.600 64.000 C 249.600 63.780,249.060 63.600,248.400 63.600 C 247.740 63.600,247.200 63.420,247.200 63.200 C 247.200 62.980,246.671 62.800,246.024 62.800 C 245.377 62.800,244.736 62.620,244.600 62.400 C 244.464 62.180,244.001 62.000,243.571 62.000 C 243.141 62.000,242.477 61.842,242.095 61.649 C 240.722 60.955,238.337 60.336,236.188 60.114 C 234.985 59.990,234.000 59.733,234.000 59.544 C 234.000 59.355,233.100 59.200,232.000 59.200 C 230.900 59.200,230.000 59.020,230.000 58.800 C 230.000 58.580,229.100 58.400,228.000 58.400 C 226.900 58.400,226.000 58.220,226.000 58.000 C 226.000 57.780,225.010 57.600,223.800 57.600 C 222.590 57.600,221.600 57.420,221.600 57.200 C 221.600 56.967,220.267 56.800,218.400 56.800 C 216.533 56.800,215.200 56.633,215.200 56.400 C 215.200 56.140,209.867 56.000,200.000 56.000 C 190.133 56.000,184.800 56.140,184.800 56.400 M249.698 109.900 C 252.368 112.904,252.097 136.038,249.214 151.200 C 247.849 158.380,247.600 159.427,246.318 163.400 C 243.597 171.831,239.463 175.594,237.860 171.100 C 236.670 167.764,236.729 158.783,238.007 148.700 C 239.283 138.632,239.762 135.592,241.200 128.400 C 241.420 127.300,241.769 125.545,241.975 124.500 C 242.834 120.151,242.957 119.618,244.052 115.500 C 245.305 110.786,248.058 108.055,249.698 109.900 M287.511 119.023 C 288.449 119.680,288.643 120.940,288.042 122.481 C 287.845 122.987,287.452 124.210,287.170 125.200 C 286.249 128.426,282.029 138.000,277.208 147.800 C 274.610 153.080,272.086 158.300,271.598 159.400 C 267.140 169.459,262.020 177.600,260.152 177.600 C 259.885 177.600,259.600 177.800,259.518 178.045 C 259.225 178.925,255.259 178.637,254.288 177.665 C 252.492 175.867,253.590 169.029,256.859 161.658 C 259.230 156.313,262.439 149.674,263.848 147.200 C 264.412 146.210,265.696 143.960,266.701 142.200 C 268.465 139.112,275.461 128.408,275.983 128.000 C 276.124 127.890,276.671 127.170,277.200 126.400 C 277.729 125.630,278.444 124.730,278.788 124.400 C 279.133 124.070,280.173 122.879,281.100 121.754 C 283.582 118.739,285.773 117.806,287.511 119.023 M177.905 124.356 C 178.287 124.552,179.471 125.129,180.536 125.638 C 183.652 127.127,188.400 133.475,188.400 136.151 C 188.400 136.482,188.556 136.849,188.746 136.967 C 189.597 137.493,190.386 144.840,190.811 156.200 C 191.500 174.621,191.142 173.727,198.000 174.163 C 203.878 174.538,214.687 175.958,221.000 177.185 C 229.857 178.908,232.760 179.537,235.700 180.373 C 236.525 180.608,237.785 180.963,238.500 181.163 C 253.317 185.297,268.341 191.857,275.400 197.274 C 286.063 205.456,291.175 214.549,289.609 222.547 C 288.922 226.058,288.133 227.888,285.619 231.800 C 283.452 235.173,278.846 239.854,275.200 242.388 C 274.430 242.924,273.710 243.460,273.600 243.581 C 271.831 245.520,257.588 254.710,251.000 258.162 C 250.120 258.623,249.310 259.100,249.200 259.222 C 248.963 259.485,231.975 267.888,228.800 269.313 C 223.322 271.771,222.529 272.123,221.400 272.603 C 220.740 272.884,219.160 273.583,217.888 274.157 C 216.617 274.731,215.399 275.200,215.183 275.200 C 214.966 275.200,214.477 275.359,214.095 275.553 C 212.922 276.150,211.474 276.724,209.800 277.255 C 208.920 277.535,208.029 277.907,207.820 278.082 C 207.611 278.257,207.062 278.400,206.600 278.400 C 206.138 278.400,205.589 278.549,205.380 278.730 C 205.171 278.912,204.190 279.293,203.200 279.576 C 202.210 279.859,201.040 280.236,200.600 280.412 C 200.160 280.589,199.440 280.824,199.000 280.934 C 198.560 281.045,196.940 281.519,195.400 281.987 C 191.475 283.181,182.662 285.454,179.800 286.010 C 178.480 286.267,176.680 286.643,175.800 286.847 C 161.448 290.164,147.911 290.209,137.800 286.973 C 126.642 283.401,117.194 272.662,113.973 259.888 C 112.651 254.647,112.747 255.107,111.601 248.500 C 110.007 239.312,110.328 226.171,112.415 215.200 C 112.645 213.990,112.936 212.413,113.061 211.696 C 113.186 210.979,113.449 210.294,113.644 210.173 C 113.840 210.052,114.000 209.601,114.000 209.171 C 114.000 208.131,117.249 198.414,120.812 188.800 C 121.504 186.930,122.209 184.950,122.377 184.400 C 122.678 183.413,122.371 180.310,121.625 176.800 C 120.846 173.130,120.704 172.545,119.982 170.000 C 112.328 143.023,130.262 125.714,145.264 145.600 C 146.746 147.564,152.000 157.404,152.000 158.214 C 152.000 158.341,152.379 159.289,152.842 160.322 C 153.812 162.485,154.725 164.607,155.241 165.900 C 155.438 166.395,155.762 167.205,155.959 167.700 C 157.729 172.134,159.168 173.789,161.613 174.202 C 164.381 174.670,164.819 172.399,162.751 168.305 C 162.558 167.923,162.400 167.336,162.400 167.000 C 162.400 166.664,162.241 166.077,162.047 165.695 C 161.188 164.006,160.854 162.962,159.619 158.100 C 157.437 149.508,157.075 139.430,158.789 135.000 C 160.253 131.218,163.798 126.400,165.117 126.400 C 165.382 126.400,165.600 126.264,165.600 126.098 C 165.600 125.931,166.185 125.560,166.900 125.272 C 167.615 124.984,168.470 124.591,168.800 124.398 C 169.593 123.934,177.017 123.900,177.905 124.356 " stroke="none" fill="#046cc4" fill-rule="evenodd"></path><path id="path2" d="M247.823 109.563 C 247.700 109.762,247.938 109.837,248.353 109.728 C 248.839 109.601,249.336 109.859,249.753 110.455 C 250.109 110.962,250.400 111.186,250.400 110.951 C 250.400 109.900,248.311 108.774,247.823 109.563 M246.001 110.998 C 245.486 111.548,245.139 112.064,245.232 112.146 C 245.324 112.228,245.819 111.778,246.330 111.147 C 247.476 109.735,247.274 109.644,246.001 110.998 M250.873 114.200 C 250.858 114.860,250.995 116.120,251.177 117.000 C 251.613 119.106,251.650 117.214,251.220 114.800 C 250.980 113.450,250.893 113.300,250.873 114.200 M243.049 119.015 C 242.912 119.373,242.815 119.966,242.834 120.333 C 242.853 120.700,243.027 120.469,243.221 119.820 C 243.598 118.558,243.465 117.933,243.049 119.015 M282.567 120.236 L 281.000 121.673 282.800 120.359 C 283.790 119.637,284.675 118.990,284.767 118.923 C 284.858 118.855,284.753 118.800,284.533 118.800 C 284.313 118.800,283.428 119.446,282.567 120.236 M287.561 119.523 C 287.845 120.056,287.947 120.988,287.802 121.723 C 287.615 122.676,287.658 122.848,287.970 122.400 C 288.605 121.488,288.481 119.764,287.735 119.149 C 287.130 118.650,287.114 118.684,287.561 119.523 M242.249 122.615 C 242.112 122.973,242.016 123.656,242.036 124.133 C 242.062 124.747,242.185 124.608,242.459 123.656 C 242.857 122.272,242.694 121.458,242.249 122.615 M169.045 124.328 C 168.933 124.508,169.373 124.577,170.021 124.482 C 170.670 124.387,171.200 124.240,171.200 124.155 C 171.200 123.850,169.243 124.007,169.045 124.328 M175.233 124.143 C 175.676 124.522,178.017 124.751,177.796 124.394 C 177.662 124.177,176.993 124.000,176.310 124.000 C 175.626 124.000,175.142 124.064,175.233 124.143 M278.600 124.546 C 277.419 125.918,277.196 126.461,278.203 125.512 C 278.838 124.914,279.277 124.347,279.179 124.252 C 279.080 124.158,278.820 124.290,278.600 124.546 M181.211 126.260 C 181.755 126.623,182.840 127.478,183.623 128.160 C 184.405 128.842,184.168 128.545,183.095 127.500 C 182.022 126.455,180.937 125.600,180.683 125.600 C 180.429 125.600,180.667 125.897,181.211 126.260 M241.449 126.615 C 241.312 126.973,241.218 127.656,241.241 128.133 C 241.267 128.681,241.403 128.486,241.610 127.603 C 241.960 126.116,241.865 125.533,241.449 126.615 M162.575 128.500 L 161.400 129.800 162.700 128.625 C 163.912 127.530,164.184 127.200,163.875 127.200 C 163.806 127.200,163.221 127.785,162.575 128.500 M250.991 132.191 C 250.832 134.526,250.789 136.523,250.896 136.629 C 251.002 136.736,251.217 134.911,251.374 132.574 C 251.530 130.237,251.573 128.240,251.470 128.136 C 251.366 128.032,251.150 129.857,250.991 132.191 M240.649 130.615 C 240.512 130.973,240.421 131.746,240.446 132.333 C 240.480 133.132,240.570 132.998,240.804 131.800 C 241.135 130.100,241.062 129.540,240.649 130.615 M283.400 133.861 C 283.064 134.665,282.882 135.415,282.995 135.528 C 283.108 135.641,283.200 135.635,283.200 135.516 C 283.200 135.396,283.472 134.646,283.805 133.849 C 284.138 133.052,284.321 132.400,284.211 132.400 C 284.101 132.400,283.736 133.058,283.400 133.861 M239.856 134.884 C 239.721 135.388,239.628 136.250,239.649 136.800 C 239.672 137.389,239.831 137.071,240.036 136.025 C 240.403 134.152,240.273 133.327,239.856 134.884 M269.846 137.000 C 269.491 137.550,268.909 138.495,268.553 139.100 L 267.905 140.200 268.710 139.226 C 269.660 138.076,270.921 136.000,270.669 136.000 C 270.571 136.000,270.201 136.450,269.846 137.000 M280.804 139.703 C 280.070 141.296,279.398 142.735,279.311 142.900 C 279.224 143.065,279.244 143.200,279.355 143.200 C 279.621 143.200,282.461 137.128,282.279 136.946 C 282.202 136.869,281.538 138.109,280.804 139.703 M129.000 137.403 C 129.885 137.711,134.372 137.829,133.904 137.532 C 133.627 137.356,132.320 137.224,131.000 137.238 C 129.680 137.252,128.780 137.326,129.000 137.403 M126.900 138.012 C 125.561 138.551,125.811 138.824,127.200 138.340 C 127.860 138.110,128.400 137.849,128.400 137.761 C 128.400 137.524,127.913 137.605,126.900 138.012 M135.200 138.286 C 135.530 138.409,136.295 138.760,136.900 139.065 C 137.505 139.371,138.000 139.531,138.000 139.421 C 138.000 139.107,135.698 137.996,135.120 138.032 C 134.771 138.053,134.797 138.136,135.200 138.286 M157.850 139.250 C 157.532 140.840,157.596 147.905,157.940 149.120 C 158.083 149.627,158.200 147.331,158.200 144.020 C 158.200 137.396,158.206 137.472,157.850 139.250 M250.193 141.338 C 250.038 142.987,249.992 144.575,250.090 144.868 C 250.188 145.161,250.394 143.891,250.548 142.047 C 250.702 140.203,250.748 138.615,250.651 138.517 C 250.553 138.420,250.347 139.689,250.193 141.338 M239.053 140.036 C 238.914 140.731,238.823 141.953,238.851 142.750 C 238.885 143.730,239.010 143.363,239.235 141.618 C 239.589 138.883,239.477 137.913,239.053 140.036 M139.446 140.467 C 140.081 140.944,141.185 141.879,141.900 142.546 C 142.615 143.212,143.200 143.608,143.200 143.425 C 143.200 142.899,139.240 139.600,138.608 139.600 C 138.434 139.600,138.811 139.990,139.446 140.467 M189.473 141.200 C 189.604 142.190,189.776 143.075,189.856 143.167 C 190.157 143.514,189.928 140.964,189.590 140.200 C 189.353 139.666,189.314 139.998,189.473 141.200 M122.986 140.948 C 121.753 142.578,120.001 145.417,120.005 145.778 C 120.007 146.010,120.471 145.390,121.035 144.400 C 121.598 143.410,122.437 142.196,122.898 141.702 C 123.359 141.207,123.654 140.721,123.554 140.621 C 123.454 140.520,123.198 140.668,122.986 140.948 M143.600 143.768 C 143.600 143.894,144.410 145.098,145.400 146.443 C 147.217 148.911,147.946 149.399,146.325 147.062 C 145.127 145.335,143.600 143.489,143.600 143.768 M238.253 146.036 C 238.114 146.731,238.023 147.953,238.051 148.750 C 238.085 149.730,238.210 149.363,238.435 147.618 C 238.789 144.883,238.677 143.913,238.253 146.036 M190.294 150.600 C 190.498 157.428,190.706 158.221,190.714 152.200 C 190.717 149.560,190.589 146.950,190.430 146.400 C 190.270 145.850,190.209 147.740,190.294 150.600 M249.293 149.200 C 249.293 149.970,249.375 150.285,249.476 149.900 C 249.576 149.515,249.576 148.885,249.476 148.500 C 249.375 148.115,249.293 148.430,249.293 149.200 M158.446 152.800 C 158.427 153.350,158.587 154.070,158.800 154.400 C 159.294 155.164,159.294 154.342,158.800 152.800 L 158.480 151.800 158.446 152.800 M118.035 155.833 C 118.054 157.795,118.208 160.300,118.377 161.400 C 118.560 162.586,118.604 161.201,118.487 158.000 C 118.261 151.840,117.983 150.505,118.035 155.833 M248.454 153.200 C 248.419 153.750,248.296 154.650,248.183 155.200 L 247.977 156.200 248.407 155.215 C 248.643 154.674,248.765 153.774,248.678 153.215 L 248.520 152.200 248.454 153.200 M237.337 156.600 C 237.339 158.360,237.409 159.030,237.493 158.089 C 237.578 157.149,237.577 155.709,237.491 154.889 C 237.405 154.070,237.336 154.840,237.337 156.600 M150.800 156.084 C 150.800 156.516,152.015 159.200,152.211 159.200 C 152.321 159.200,152.133 158.534,151.793 157.721 C 151.193 156.286,150.800 155.638,150.800 156.084 M159.206 156.633 C 159.209 157.055,159.395 157.670,159.618 158.000 C 159.915 158.438,159.952 158.276,159.756 157.400 C 159.427 155.929,159.198 155.610,159.206 156.633 M247.660 157.267 C 247.627 157.854,247.496 158.664,247.370 159.067 C 247.152 159.760,247.165 159.761,247.595 159.090 C 247.846 158.699,247.977 157.889,247.886 157.290 L 247.720 156.200 247.660 157.267 M160.006 159.833 C 160.009 160.255,160.195 160.870,160.418 161.200 C 160.715 161.638,160.752 161.476,160.556 160.600 C 160.227 159.129,159.998 158.810,160.006 159.833 M246.846 160.467 C 246.821 160.834,246.696 161.464,246.570 161.867 C 246.352 162.562,246.363 162.563,246.797 161.887 C 247.048 161.496,247.173 160.866,247.073 160.487 C 246.911 159.868,246.888 159.866,246.846 160.467 M236.928 163.200 C 236.928 164.630,237.001 165.215,237.089 164.500 C 237.178 163.785,237.178 162.615,237.089 161.900 C 237.001 161.185,236.928 161.770,236.928 163.200 M256.838 161.700 C 256.649 162.195,256.204 163.297,255.848 164.149 C 255.491 165.001,255.211 165.901,255.225 166.149 C 255.239 166.397,255.400 166.240,255.584 165.800 C 256.881 162.682,257.559 160.800,257.384 160.800 C 257.272 160.800,257.026 161.205,256.838 161.700 M191.081 167.200 C 191.206 168.410,191.374 169.475,191.454 169.567 C 191.735 169.887,191.517 166.991,191.187 166.000 C 190.971 165.354,190.934 165.780,191.081 167.200 M267.978 166.298 C 267.074 168.101,267.087 168.279,268.020 166.883 C 268.504 166.159,268.817 165.483,268.715 165.382 C 268.613 165.280,268.281 165.692,267.978 166.298 M237.314 168.200 C 237.317 169.300,237.395 169.703,237.487 169.095 C 237.579 168.486,237.577 167.586,237.482 167.095 C 237.387 166.603,237.311 167.100,237.314 168.200 M163.212 169.600 C 163.212 169.930,163.387 170.470,163.600 170.800 C 163.945 171.333,163.988 171.333,163.988 170.800 C 163.988 170.470,163.813 169.930,163.600 169.600 C 163.255 169.067,163.212 169.067,163.212 169.600 M264.400 172.600 C 263.469 174.029,262.091 175.739,261.339 176.400 C 260.587 177.060,260.122 177.600,260.305 177.600 C 260.810 177.600,263.337 174.825,264.675 172.800 C 266.227 170.451,266.484 170.000,266.271 170.000 C 266.173 170.000,265.332 171.170,264.400 172.600 M237.600 170.515 C 237.600 171.085,238.555 172.800,238.873 172.800 C 239.063 172.800,238.909 172.305,238.530 171.700 C 237.632 170.264,237.600 170.223,237.600 170.515 M253.400 172.800 C 253.244 174.147,253.201 175.334,253.305 175.438 C 253.409 175.542,253.619 174.522,253.771 173.171 C 253.924 171.821,253.967 170.634,253.867 170.533 C 253.766 170.433,253.556 171.453,253.400 172.800 M163.973 173.000 C 163.808 174.142,163.713 174.197,162.000 174.136 C 160.703 174.090,160.423 174.166,161.000 174.408 C 163.045 175.267,164.603 174.472,164.304 172.722 C 164.167 171.922,164.123 171.958,163.973 173.000 M191.600 172.315 C 191.600 172.896,193.533 174.201,193.879 173.854 C 194.019 173.714,193.930 173.600,193.682 173.600 C 193.434 173.600,192.864 173.206,192.416 172.725 C 191.967 172.243,191.600 172.059,191.600 172.315 M120.806 173.233 C 120.809 173.765,120.989 174.470,121.206 174.800 C 121.482 175.222,121.523 174.985,121.342 174.000 C 121.025 172.275,120.798 171.949,120.806 173.233 M196.033 174.144 C 196.125 174.223,197.640 174.383,199.400 174.498 C 201.215 174.618,202.081 174.576,201.400 174.402 C 200.188 174.091,195.725 173.877,196.033 174.144 M204.833 174.944 C 204.925 175.023,205.900 175.191,207.000 175.318 C 208.287 175.467,208.715 175.426,208.200 175.203 C 207.436 174.872,204.486 174.645,204.833 174.944 M211.233 175.747 C 211.325 175.828,212.120 176.014,213.000 176.162 C 214.146 176.354,214.430 176.314,214.000 176.021 C 213.460 175.653,210.832 175.393,211.233 175.747 M253.625 176.438 C 253.599 177.109,254.802 178.409,255.431 178.388 C 255.634 178.381,255.474 178.186,255.074 177.954 C 254.675 177.722,254.192 177.142,254.000 176.666 C 253.763 176.080,253.643 176.006,253.625 176.438 M216.433 176.547 C 216.525 176.628,217.320 176.804,218.200 176.938 C 219.315 177.107,219.558 177.071,219.000 176.819 C 218.232 176.471,216.090 176.244,216.433 176.547 M221.233 177.344 C 221.325 177.423,221.940 177.608,222.600 177.756 C 223.476 177.952,223.638 177.915,223.200 177.618 C 222.660 177.253,220.832 176.998,221.233 177.344 M225.233 178.144 C 225.325 178.223,225.940 178.408,226.600 178.556 C 227.476 178.752,227.638 178.715,227.200 178.418 C 226.660 178.053,224.832 177.798,225.233 178.144 M229.600 179.200 C 230.968 179.638,232.019 179.638,231.000 179.200 C 230.560 179.011,229.840 178.862,229.400 178.868 C 228.757 178.877,228.796 178.943,229.600 179.200 M233.200 180.000 C 233.530 180.213,234.070 180.388,234.400 180.388 C 234.933 180.388,234.933 180.345,234.400 180.000 C 234.070 179.787,233.530 179.612,233.200 179.612 C 232.667 179.612,232.667 179.655,233.200 180.000 M122.501 181.400 C 122.505 182.280,122.587 182.593,122.683 182.095 C 122.779 181.598,122.775 180.878,122.675 180.495 C 122.575 180.113,122.496 180.520,122.501 181.400 M250.833 185.365 C 250.983 185.514,253.552 186.564,259.400 188.869 C 260.500 189.303,261.220 189.491,261.000 189.288 C 260.310 188.650,250.221 184.758,250.833 185.365 M121.291 187.300 C 120.610 189.184,120.704 189.694,121.426 188.030 C 121.753 187.277,121.966 186.499,121.901 186.302 C 121.835 186.105,121.560 186.554,121.291 187.300 M119.691 191.700 C 119.010 193.584,119.104 194.094,119.826 192.430 C 120.153 191.677,120.366 190.899,120.301 190.702 C 120.235 190.505,119.960 190.954,119.691 191.700 M263.254 190.587 C 263.567 190.900,266.400 192.023,266.400 191.835 C 266.400 191.591,263.969 190.400,263.472 190.400 C 263.249 190.400,263.151 190.484,263.254 190.587 M270.000 194.020 C 271.387 194.961,272.178 195.235,271.200 194.436 C 270.650 193.986,270.020 193.617,269.800 193.615 C 269.580 193.613,269.670 193.796,270.000 194.020 M275.800 197.857 C 277.837 199.664,278.587 200.191,277.802 199.263 C 277.366 198.748,276.647 198.141,276.204 197.914 C 275.762 197.687,275.580 197.662,275.800 197.857 M281.200 202.590 C 282.630 204.124,283.845 205.459,283.900 205.556 C 283.955 205.654,284.085 205.648,284.189 205.545 C 284.292 205.441,283.077 204.106,281.489 202.578 L 278.600 199.800 281.200 202.590 M112.673 213.353 C 112.523 213.745,112.411 214.366,112.425 214.733 C 112.442 215.175,112.581 215.074,112.837 214.434 C 113.049 213.903,113.161 213.282,113.085 213.054 C 113.009 212.827,112.824 212.961,112.673 213.353 M289.386 219.791 C 289.398 222.858,289.451 223.140,289.750 221.725 C 289.953 220.762,289.947 219.260,289.735 218.134 C 289.402 216.364,289.373 216.505,289.386 219.791 M111.856 217.684 C 111.721 218.188,111.627 218.960,111.646 219.400 C 111.665 219.840,111.845 219.498,112.046 218.640 C 112.436 216.978,112.270 216.140,111.856 217.684 M111.056 222.884 C 110.921 223.388,110.830 224.430,110.852 225.200 C 110.886 226.334,110.962 226.189,111.252 224.439 C 111.620 222.225,111.496 221.243,111.056 222.884 M110.546 234.200 C 110.547 236.400,110.614 237.249,110.695 236.087 C 110.776 234.924,110.776 233.124,110.693 232.087 C 110.611 231.049,110.545 232.000,110.546 234.200 M280.441 237.660 C 279.033 238.997,278.223 239.905,278.641 239.676 C 279.390 239.266,283.544 235.187,283.185 235.214 C 283.083 235.222,281.848 236.322,280.441 237.660 M110.886 243.600 C 110.883 244.370,111.024 245.450,111.200 246.000 C 111.650 247.404,111.665 245.937,111.223 243.800 L 110.892 242.200 110.886 243.600 M269.800 246.053 C 267.434 247.824,267.122 248.306,269.280 246.854 C 270.313 246.159,271.269 245.412,271.403 245.195 C 271.755 244.626,271.583 244.718,269.800 246.053 M111.646 249.200 C 111.627 249.750,111.787 250.470,112.000 250.800 C 112.494 251.564,112.494 250.742,112.000 249.200 L 111.680 248.200 111.646 249.200 M263.595 250.254 C 261.212 251.831,259.849 253.010,261.800 251.806 C 265.075 249.783,266.415 248.800,265.895 248.800 C 265.837 248.800,264.802 249.454,263.595 250.254 M112.434 253.800 C 112.422 254.240,112.587 254.870,112.800 255.200 C 113.314 255.995,113.314 254.996,112.800 253.800 L 112.456 253.000 112.434 253.800 M235.200 266.000 C 234.430 266.422,233.944 266.774,234.120 266.783 C 234.544 266.805,236.800 265.632,236.800 265.390 C 236.800 265.128,236.777 265.137,235.200 266.000 M118.600 271.200 C 118.941 271.860,119.311 272.400,119.421 272.400 C 119.531 272.400,119.341 271.860,119.000 271.200 C 118.659 270.540,118.289 270.000,118.179 270.000 C 118.069 270.000,118.259 270.540,118.600 271.200 M120.002 273.222 C 120.001 273.345,120.450 274.055,121.000 274.800 C 121.550 275.545,121.994 275.985,121.986 275.778 C 121.970 275.376,120.005 272.845,120.002 273.222 M124.400 278.600 C 125.595 279.810,126.663 280.800,126.773 280.800 C 126.883 280.800,125.995 279.810,124.800 278.600 C 123.605 277.390,122.537 276.400,122.427 276.400 C 122.317 276.400,123.205 277.390,124.400 278.600 M202.000 279.600 C 201.176 279.864,201.141 279.926,201.800 279.954 C 202.240 279.973,202.870 279.813,203.200 279.600 C 203.901 279.147,203.414 279.147,202.000 279.600 M195.600 281.618 C 195.162 281.915,195.324 281.952,196.200 281.756 C 197.671 281.427,197.990 281.198,196.967 281.206 C 196.545 281.209,195.930 281.395,195.600 281.618 M191.600 282.800 C 190.776 283.064,190.741 283.126,191.400 283.154 C 191.840 283.173,192.470 283.013,192.800 282.800 C 193.501 282.347,193.014 282.347,191.600 282.800 M187.000 284.000 C 186.496 284.217,186.422 284.344,186.800 284.344 C 187.130 284.344,187.760 284.189,188.200 284.000 C 188.704 283.783,188.778 283.656,188.400 283.656 C 188.070 283.656,187.440 283.811,187.000 284.000 M183.800 284.800 C 182.781 285.238,183.832 285.238,185.200 284.800 C 186.004 284.543,186.043 284.477,185.400 284.468 C 184.960 284.462,184.240 284.611,183.800 284.800 M176.600 286.400 C 176.096 286.617,176.022 286.744,176.400 286.744 C 176.730 286.744,177.360 286.589,177.800 286.400 C 178.304 286.183,178.378 286.056,178.000 286.056 C 177.670 286.056,177.040 286.211,176.600 286.400 M172.600 287.200 L 171.800 287.544 172.600 287.544 C 173.040 287.544,173.760 287.389,174.200 287.200 L 175.000 286.856 174.200 286.856 C 173.760 286.856,173.040 287.011,172.600 287.200 M141.200 287.982 C 141.530 288.205,142.145 288.391,142.567 288.394 C 143.590 288.402,143.271 288.173,141.800 287.844 C 140.924 287.648,140.762 287.685,141.200 287.982 M167.600 288.000 L 166.600 288.320 167.600 288.332 C 168.150 288.338,168.960 288.189,169.400 288.000 L 170.200 287.656 169.400 287.668 C 168.960 287.674,168.150 287.824,167.600 288.000 M145.200 288.800 C 145.750 288.976,146.650 289.117,147.200 289.113 C 148.098 289.106,148.078 289.074,147.000 288.800 C 145.308 288.369,143.856 288.369,145.200 288.800 M162.200 288.800 C 161.122 289.074,161.102 289.106,162.000 289.113 C 162.550 289.117,163.450 288.976,164.000 288.800 C 165.344 288.369,163.892 288.369,162.200 288.800 M153.500 289.489 C 154.215 289.578,155.385 289.578,156.100 289.489 C 156.815 289.401,156.230 289.328,154.800 289.328 C 153.370 289.328,152.785 289.401,153.500 289.489 " stroke="none" fill="#589cd6" fill-rule="evenodd"></path><path id="path3" d="M251.301 119.800 C 251.305 120.680,251.387 120.993,251.483 120.495 C 251.579 119.998,251.575 119.278,251.475 118.895 C 251.375 118.513,251.296 118.920,251.301 119.800 M172.100 124.287 C 172.705 124.378,173.695 124.378,174.300 124.287 C 174.905 124.195,174.410 124.120,173.200 124.120 C 171.990 124.120,171.495 124.195,172.100 124.287 M251.301 126.600 C 251.305 127.480,251.387 127.793,251.483 127.295 C 251.579 126.798,251.575 126.078,251.475 125.695 C 251.375 125.313,251.296 125.720,251.301 126.600 M118.501 153.400 C 118.505 154.280,118.587 154.593,118.683 154.095 C 118.779 153.598,118.775 152.878,118.675 152.495 C 118.575 152.113,118.496 152.520,118.501 153.400 M190.528 159.200 C 190.528 160.630,190.601 161.215,190.689 160.500 C 190.778 159.785,190.778 158.615,190.689 157.900 C 190.601 157.185,190.528 157.770,190.528 159.200 M118.493 158.800 C 118.493 159.570,118.575 159.885,118.676 159.500 C 118.776 159.115,118.776 158.485,118.676 158.100 C 118.575 157.715,118.493 158.030,118.493 158.800 M237.293 160.800 C 237.293 161.570,237.375 161.885,237.476 161.500 C 237.576 161.115,237.576 160.485,237.476 160.100 C 237.375 159.715,237.293 160.030,237.293 160.800 M237.301 165.000 C 237.305 165.880,237.387 166.193,237.483 165.695 C 237.579 165.198,237.575 164.478,237.475 164.095 C 237.375 163.713,237.296 164.120,237.301 165.000 M289.309 220.000 C 289.309 220.990,289.387 221.395,289.482 220.900 C 289.578 220.405,289.578 219.595,289.482 219.100 C 289.387 218.605,289.309 219.010,289.309 220.000 " stroke="none" fill="#75acdc" fill-rule="evenodd"></path><path id="path4" d="M247.618 110.126 C 247.106 110.387,246.422 111.050,246.099 111.600 C 245.581 112.484,245.614 112.472,246.390 111.500 C 247.322 110.331,249.358 109.966,249.735 110.900 C 249.887 111.277,249.945 111.280,249.968 110.914 C 250.023 110.067,248.643 109.604,247.618 110.126 M250.273 113.200 C 250.404 114.190,250.576 115.075,250.656 115.167 C 250.957 115.514,250.728 112.964,250.390 112.200 C 250.153 111.666,250.114 111.998,250.273 113.200 M244.446 115.267 C 244.421 115.634,244.296 116.264,244.170 116.667 C 243.952 117.362,243.963 117.363,244.397 116.687 C 244.648 116.296,244.773 115.666,244.673 115.287 C 244.511 114.668,244.488 114.666,244.446 115.267 M250.956 123.800 C 250.948 130.397,250.973 130.663,251.261 126.976 C 251.434 124.763,251.438 121.523,251.271 119.776 C 251.023 117.192,250.964 117.942,250.956 123.800 M243.654 118.267 C 243.625 118.744,243.496 119.464,243.370 119.867 C 243.152 120.561,243.164 120.562,243.596 119.888 C 243.847 119.497,243.975 118.777,243.881 118.288 C 243.709 117.401,243.709 117.401,243.654 118.267 M281.751 121.700 C 280.639 122.855,279.052 124.700,278.223 125.800 L 276.718 127.800 278.259 126.000 C 279.106 125.011,280.772 123.166,281.961 121.900 C 283.149 120.635,284.043 119.600,283.947 119.600 C 283.851 119.600,282.863 120.545,281.751 121.700 M242.849 122.000 C 242.816 122.330,242.689 123.050,242.567 123.600 C 242.375 124.464,242.407 124.503,242.799 123.888 C 243.048 123.497,243.175 122.777,243.081 122.288 C 242.986 121.800,242.882 121.670,242.849 122.000 M176.600 124.800 C 177.040 124.989,177.670 125.144,178.000 125.144 C 178.378 125.144,178.304 125.017,177.800 124.800 C 177.360 124.611,176.730 124.456,176.400 124.456 C 176.022 124.456,176.096 124.583,176.600 124.800 M178.800 125.371 C 178.800 125.647,181.314 126.820,181.502 126.631 C 181.597 126.536,181.127 126.176,180.457 125.829 C 179.209 125.184,178.800 125.071,178.800 125.371 M242.049 125.800 C 242.016 126.240,241.896 127.050,241.783 127.600 L 241.577 128.600 242.006 127.619 C 242.242 127.079,242.361 126.269,242.272 125.819 C 242.113 125.021,242.107 125.021,242.049 125.800 M182.033 127.300 C 182.125 127.355,182.740 127.850,183.400 128.400 L 184.600 129.400 183.630 128.300 C 183.097 127.695,182.482 127.200,182.264 127.200 C 182.045 127.200,181.942 127.245,182.033 127.300 M275.375 129.468 C 274.759 130.276,274.459 130.811,274.709 130.656 C 275.221 130.340,276.953 128.000,276.675 128.000 C 276.576 128.000,275.991 128.661,275.375 129.468 M284.867 129.580 C 284.633 130.251,284.527 130.800,284.631 130.800 C 284.901 130.800,285.656 128.722,285.457 128.524 C 285.367 128.433,285.101 128.908,284.867 129.580 M185.495 131.381 C 186.087 132.361,186.636 133.098,186.715 133.019 C 186.883 132.851,184.877 129.600,184.605 129.600 C 184.503 129.600,184.904 130.401,185.495 131.381 M241.050 130.850 C 240.717 132.517,241.040 132.840,241.400 131.200 C 241.552 130.509,241.593 129.859,241.491 129.758 C 241.389 129.656,241.191 130.147,241.050 130.850 M250.252 136.353 C 250.098 138.197,250.052 139.785,250.149 139.883 C 250.400 140.133,250.926 134.177,250.710 133.532 C 250.612 133.239,250.406 134.509,250.252 136.353 M240.449 134.400 C 240.416 134.730,240.289 135.450,240.167 136.000 C 239.975 136.864,240.007 136.903,240.399 136.288 C 240.648 135.897,240.775 135.177,240.681 134.688 C 240.586 134.200,240.482 134.070,240.449 134.400 M269.917 137.500 C 269.373 138.325,268.714 139.450,268.453 140.000 L 267.977 141.000 268.688 140.034 C 269.707 138.652,271.276 136.000,271.076 136.000 C 270.983 136.000,270.461 136.675,269.917 137.500 M188.253 137.400 C 188.396 138.060,188.647 139.230,188.810 140.000 C 189.100 141.361,189.108 141.367,189.124 140.200 C 189.132 139.540,188.881 138.370,188.566 137.600 C 188.044 136.325,188.016 136.307,188.253 137.400 M158.246 141.900 C 158.113 144.485,158.140 147.680,158.306 149.000 C 158.527 150.754,158.618 149.488,158.643 144.300 C 158.682 136.008,158.581 135.399,158.246 141.900 M128.200 138.000 L 127.400 138.344 128.200 138.366 C 128.640 138.378,129.270 138.213,129.600 138.000 C 130.395 137.486,129.396 137.486,128.200 138.000 M132.600 138.000 C 133.796 138.514,134.795 138.514,134.000 138.000 C 133.670 137.787,133.040 137.622,132.600 137.634 L 131.800 137.656 132.600 138.000 M239.660 139.250 C 239.627 139.828,239.511 140.907,239.401 141.650 L 239.203 143.000 239.624 141.657 C 239.855 140.919,239.972 139.839,239.882 139.257 L 239.720 138.200 239.660 139.250 M266.219 143.621 C 264.843 145.969,264.259 147.389,265.327 145.789 C 266.388 144.199,268.028 141.200,267.836 141.200 C 267.727 141.200,267.000 142.290,266.219 143.621 M121.845 142.988 C 121.480 143.544,121.322 144.000,121.495 144.000 C 121.884 144.000,122.919 142.386,122.682 142.149 C 122.586 142.053,122.210 142.431,121.845 142.988 M249.418 145.418 C 249.265 146.439,249.230 147.363,249.340 147.473 C 249.450 147.583,249.665 146.839,249.818 145.818 C 249.971 144.798,250.006 143.873,249.896 143.763 C 249.786 143.653,249.571 144.398,249.418 145.418 M189.914 150.400 C 190.022 154.030,190.176 157.075,190.256 157.167 C 190.508 157.458,190.319 149.107,190.012 146.400 C 189.843 144.915,189.801 146.630,189.914 150.400 M238.655 146.655 C 238.513 147.686,238.474 148.608,238.569 148.702 C 238.663 148.796,238.865 148.039,239.018 147.018 C 239.171 145.998,239.210 145.076,239.104 144.971 C 238.998 144.865,238.796 145.623,238.655 146.655 M145.385 147.100 C 146.002 148.035,146.577 148.800,146.663 148.800 C 146.996 148.800,145.618 146.513,144.958 145.971 C 144.566 145.648,144.751 146.139,145.385 147.100 M275.442 149.637 C 274.506 151.513,274.690 152.076,275.647 150.262 C 276.093 149.416,276.374 148.640,276.271 148.537 C 276.168 148.434,275.795 148.929,275.442 149.637 M248.578 150.178 C 248.427 150.981,248.394 151.727,248.504 151.837 C 248.614 151.947,248.827 151.381,248.978 150.578 C 249.128 149.775,249.162 149.028,249.052 148.918 C 248.942 148.808,248.728 149.375,248.578 150.178 M237.870 152.957 C 237.711 154.253,237.661 155.394,237.760 155.493 C 238.026 155.759,238.503 152.218,238.319 151.347 C 238.232 150.936,238.030 151.660,237.870 152.957 M273.380 154.040 C 272.811 155.162,272.413 156.147,272.495 156.229 C 272.577 156.311,273.127 155.393,273.718 154.189 C 274.308 152.985,274.706 152.000,274.602 152.000 C 274.498 152.000,273.948 152.918,273.380 154.040 M158.846 152.800 C 158.865 153.130,159.024 153.850,159.200 154.400 L 159.520 155.400 159.554 154.400 C 159.573 153.850,159.413 153.130,159.200 152.800 C 158.855 152.267,158.816 152.267,158.846 152.800 M247.800 154.400 C 247.648 155.091,247.607 155.741,247.709 155.842 C 247.811 155.944,248.009 155.453,248.150 154.750 C 248.483 153.083,248.160 152.760,247.800 154.400 M118.501 156.200 C 118.505 157.080,118.587 157.393,118.683 156.895 C 118.779 156.398,118.775 155.678,118.675 155.295 C 118.575 154.913,118.496 155.320,118.501 156.200 M159.844 157.400 C 160.173 158.871,160.402 159.190,160.394 158.167 C 160.391 157.745,160.205 157.130,159.982 156.800 C 159.685 156.362,159.648 156.524,159.844 157.400 M247.073 157.753 C 246.923 158.145,246.811 158.766,246.825 159.133 C 246.842 159.575,246.981 159.474,247.237 158.834 C 247.449 158.303,247.561 157.682,247.485 157.454 C 247.409 157.227,247.224 157.361,247.073 157.753 M160.644 160.600 C 160.973 162.071,161.202 162.390,161.194 161.367 C 161.191 160.945,161.005 160.330,160.782 160.000 C 160.485 159.562,160.448 159.724,160.644 160.600 M246.200 161.200 C 246.050 161.673,246.017 162.150,246.127 162.260 C 246.237 162.370,246.450 162.073,246.600 161.600 C 246.750 161.127,246.783 160.650,246.673 160.540 C 246.563 160.430,246.350 160.727,246.200 161.200 M153.030 162.400 C 153.409 163.390,153.887 164.380,154.091 164.600 C 154.295 164.820,154.150 164.190,153.770 163.200 C 153.391 162.210,152.913 161.220,152.709 161.000 C 152.505 160.780,152.650 161.410,153.030 162.400 M269.472 162.219 C 268.532 164.189,268.664 164.524,269.647 162.662 C 270.093 161.816,270.387 161.054,270.301 160.967 C 270.214 160.881,269.841 161.444,269.472 162.219 M190.447 164.433 C 190.473 166.065,190.626 167.940,190.787 168.600 C 190.947 169.260,190.992 168.000,190.885 165.800 C 190.656 161.068,190.380 160.206,190.447 164.433 M118.880 162.800 C 118.880 163.350,119.024 164.250,119.200 164.800 L 119.520 165.800 119.520 164.800 C 119.520 164.250,119.376 163.350,119.200 162.800 L 118.880 161.800 118.880 162.800 M154.425 165.447 C 154.393 166.021,156.022 170.075,156.496 170.600 C 156.695 170.820,156.466 170.010,155.987 168.800 C 154.595 165.281,154.452 164.975,154.425 165.447 M162.416 165.854 C 162.407 166.104,162.663 166.914,162.984 167.654 C 163.306 168.394,163.576 168.796,163.584 168.546 C 163.593 168.296,163.337 167.486,163.016 166.746 C 162.694 166.006,162.424 165.604,162.416 165.854 M119.634 167.200 C 119.646 167.530,119.811 168.160,120.000 168.600 L 120.344 169.400 120.366 168.600 C 120.378 168.160,120.213 167.530,120.000 167.200 C 119.655 166.667,119.615 166.667,119.634 167.200 M237.656 169.200 C 237.656 169.530,237.811 170.160,238.000 170.600 C 238.217 171.104,238.344 171.178,238.344 170.800 C 238.344 170.470,238.189 169.840,238.000 169.400 C 237.783 168.896,237.656 168.822,237.656 169.200 M163.844 170.200 C 164.173 171.671,164.402 171.990,164.394 170.967 C 164.391 170.545,164.205 169.930,163.982 169.600 C 163.685 169.162,163.648 169.324,163.844 170.200 M265.508 170.100 C 265.187 170.595,264.707 171.450,264.440 172.000 C 263.760 173.403,264.994 171.906,265.841 170.300 C 266.539 168.974,266.323 168.844,265.508 170.100 M191.254 171.630 C 191.188 172.896,192.818 174.553,193.864 174.283 C 194.501 174.118,194.488 174.087,193.762 174.046 C 192.723 173.989,191.731 172.921,191.491 171.600 L 191.309 170.600 191.254 171.630 M238.749 172.136 C 239.051 172.501,239.614 172.800,240.000 172.800 C 240.386 172.800,240.949 172.501,241.251 172.136 C 241.754 171.528,241.724 171.519,240.900 172.032 C 240.128 172.513,239.872 172.513,239.100 172.032 C 238.276 171.519,238.246 171.528,238.749 172.136 M164.454 172.851 C 164.383 174.239,163.481 174.932,162.025 174.718 C 161.374 174.623,160.933 174.692,161.045 174.872 C 161.890 176.239,165.006 174.409,164.687 172.733 C 164.520 171.856,164.506 171.863,164.454 172.851 M198.600 174.810 C 200.190 175.152,203.885 175.333,203.567 175.054 C 203.475 174.974,201.960 174.808,200.200 174.687 C 197.902 174.529,197.451 174.563,198.600 174.810 M206.000 175.593 C 206.988 175.916,210.289 176.135,209.967 175.856 C 209.875 175.776,208.720 175.611,207.400 175.488 C 205.909 175.349,205.379 175.389,206.000 175.593 M212.200 176.390 C 212.964 176.728,215.514 176.957,215.167 176.656 C 215.075 176.576,214.190 176.404,213.200 176.273 C 211.998 176.114,211.666 176.153,212.200 176.390 M122.034 177.200 C 122.046 177.530,122.211 178.160,122.400 178.600 L 122.744 179.400 122.766 178.600 C 122.778 178.160,122.613 177.530,122.400 177.200 C 122.055 176.667,122.015 176.667,122.034 177.200 M217.400 177.197 C 218.164 177.528,221.114 177.755,220.767 177.456 C 220.675 177.377,219.700 177.209,218.600 177.082 C 217.313 176.933,216.885 176.974,217.400 177.197 M221.800 177.981 C 222.568 178.329,224.710 178.556,224.367 178.253 C 224.275 178.172,223.480 177.996,222.600 177.862 C 221.485 177.693,221.242 177.729,221.800 177.981 M225.800 178.781 C 226.568 179.129,228.710 179.356,228.367 179.053 C 228.275 178.972,227.480 178.796,226.600 178.662 C 225.485 178.493,225.242 178.529,225.800 178.781 M122.959 182.687 C 122.975 183.720,123.129 184.231,123.356 184.004 C 123.582 183.778,123.572 183.124,123.329 182.317 L 122.932 181.000 122.959 182.687 M238.400 181.821 C 239.390 182.133,240.380 182.377,240.600 182.363 C 241.300 182.321,238.234 181.261,237.400 181.257 C 236.960 181.255,237.410 181.509,238.400 181.821 M241.600 182.741 C 241.930 182.934,242.740 183.209,243.400 183.352 C 244.168 183.518,244.384 183.484,244.000 183.259 C 243.670 183.066,242.860 182.791,242.200 182.648 C 241.432 182.482,241.216 182.516,241.600 182.741 M268.400 193.335 C 268.400 193.435,269.345 194.113,270.500 194.843 C 271.655 195.572,273.590 196.886,274.800 197.761 C 276.010 198.637,276.766 199.065,276.480 198.712 C 276.195 198.359,274.485 197.096,272.680 195.905 C 268.752 193.311,268.400 193.099,268.400 193.335 M280.230 202.214 C 282.007 203.966,283.949 206.030,284.546 206.800 C 285.143 207.570,285.434 207.788,285.193 207.284 C 284.736 206.329,279.192 200.556,277.800 199.585 C 277.360 199.279,278.454 200.461,280.230 202.214 M286.481 210.191 C 286.959 211.176,287.419 211.914,287.503 211.830 C 287.684 211.649,286.068 208.400,285.797 208.400 C 285.694 208.400,286.002 209.206,286.481 210.191 M113.691 210.977 C 113.421 211.986,113.212 213.124,113.226 213.506 C 113.241 213.888,113.515 213.223,113.836 212.030 C 114.157 210.836,114.366 209.698,114.300 209.501 C 114.235 209.304,113.960 209.969,113.691 210.977 M112.460 216.450 C 112.427 217.028,112.311 218.107,112.201 218.850 L 112.003 220.200 112.424 218.857 C 112.655 218.119,112.772 217.039,112.682 216.457 L 112.520 215.400 112.460 216.450 M288.914 217.400 C 288.917 218.500,288.995 218.903,289.087 218.295 C 289.179 217.686,289.177 216.786,289.082 216.295 C 288.987 215.803,288.911 216.300,288.914 217.400 M111.663 222.000 C 111.623 222.770,111.506 224.120,111.402 225.000 L 111.212 226.600 111.623 225.000 C 111.848 224.120,111.966 222.770,111.884 222.000 L 111.734 220.600 111.663 222.000 M288.909 222.400 C 288.909 223.390,288.987 223.795,289.082 223.300 C 289.178 222.805,289.178 221.995,289.082 221.500 C 288.987 221.005,288.909 221.410,288.909 222.400 M110.965 234.400 C 110.965 238.250,111.025 239.825,111.098 237.900 C 111.171 235.975,111.171 232.825,111.098 230.900 C 111.025 228.975,110.965 230.550,110.965 234.400 M286.446 229.204 C 285.952 230.082,285.633 230.800,285.735 230.800 C 286.006 230.800,287.659 227.926,287.487 227.754 C 287.408 227.674,286.939 228.327,286.446 229.204 M284.343 232.500 C 283.696 233.422,283.636 233.635,284.137 233.233 C 284.850 232.660,285.787 231.200,285.441 231.200 C 285.339 231.200,284.844 231.785,284.343 232.500 M281.811 235.700 C 281.013 236.635,279.624 237.985,278.724 238.700 C 277.824 239.415,277.217 240.000,277.376 240.000 C 277.913 240.000,281.025 237.251,282.336 235.620 C 284.060 233.475,283.658 233.536,281.811 235.700 M274.846 241.821 C 273.881 242.579,273.251 243.197,273.446 243.194 C 273.641 243.191,274.520 242.568,275.400 241.809 C 277.464 240.030,277.113 240.037,274.846 241.821 M111.477 244.800 C 111.603 246.230,111.772 247.475,111.853 247.567 C 112.142 247.895,111.914 244.180,111.584 243.200 C 111.374 242.573,111.334 243.170,111.477 244.800 M269.500 245.814 C 268.455 246.580,267.600 247.296,267.600 247.403 C 267.600 247.511,268.500 246.952,269.600 246.162 C 271.309 244.934,271.923 244.368,271.500 244.410 C 271.445 244.415,270.545 245.047,269.500 245.814 M112.501 251.400 C 112.505 252.280,112.587 252.593,112.683 252.095 C 112.779 251.598,112.775 250.878,112.675 250.495 C 112.575 250.113,112.496 250.520,112.501 251.400 M262.100 250.796 C 260.760 251.613,260.253 252.329,261.500 251.643 C 262.429 251.133,263.852 250.028,263.600 250.014 C 263.490 250.008,262.815 250.360,262.100 250.796 M258.100 253.246 C 256.737 254.119,256.295 254.706,257.500 254.043 C 258.418 253.539,259.856 252.427,259.600 252.419 C 259.490 252.416,258.815 252.788,258.100 253.246 M113.245 255.000 C 113.240 255.440,113.485 256.700,113.791 257.800 C 114.096 258.900,114.350 259.440,114.355 259.000 C 114.360 258.560,114.115 257.300,113.809 256.200 C 113.504 255.100,113.250 254.560,113.245 255.000 M254.500 255.426 C 253.565 255.987,252.800 256.540,252.800 256.655 C 252.800 256.871,255.499 255.338,256.180 254.736 C 256.867 254.128,256.227 254.391,254.500 255.426 M250.800 257.636 C 250.136 258.179,250.069 258.315,250.600 258.040 C 251.905 257.366,252.628 256.812,252.200 256.815 C 251.980 256.817,251.350 257.186,250.800 257.636 M243.500 261.429 C 242.005 262.240,242.096 262.578,243.600 261.800 C 244.260 261.459,244.800 261.094,244.800 260.990 C 244.800 260.732,244.757 260.747,243.500 261.429 M115.617 263.600 C 115.621 263.930,116.341 265.640,117.217 267.400 C 119.097 271.176,119.019 270.674,117.032 266.200 C 116.250 264.440,115.613 263.270,115.617 263.600 M231.000 267.571 C 229.680 268.213,228.713 268.752,228.852 268.769 C 229.206 268.813,233.600 266.778,233.600 266.571 C 233.600 266.309,233.561 266.324,231.000 267.571 M226.600 269.578 C 225.720 269.995,225.113 270.350,225.251 270.368 C 225.640 270.418,228.400 269.214,228.400 268.995 C 228.400 268.727,228.399 268.727,226.600 269.578 M219.723 272.545 C 218.581 273.027,217.501 273.566,217.323 273.744 C 216.978 274.089,220.953 272.589,221.985 271.985 C 223.080 271.343,221.854 271.647,219.723 272.545 M124.600 278.400 C 125.683 279.500,126.660 280.400,126.770 280.400 C 126.880 280.400,126.083 279.500,125.000 278.400 C 123.917 277.300,122.940 276.400,122.830 276.400 C 122.720 276.400,123.517 277.300,124.600 278.400 M130.400 282.979 C 130.400 283.089,130.940 283.459,131.600 283.800 C 132.260 284.141,132.800 284.331,132.800 284.221 C 132.800 284.111,132.260 283.741,131.600 283.400 C 130.940 283.059,130.400 282.869,130.400 282.979 M188.600 283.200 C 188.096 283.417,188.022 283.544,188.400 283.544 C 188.730 283.544,189.360 283.389,189.800 283.200 C 190.304 282.983,190.378 282.856,190.000 282.856 C 189.670 282.856,189.040 283.011,188.600 283.200 M185.400 284.000 C 184.896 284.217,184.822 284.344,185.200 284.344 C 185.530 284.344,186.160 284.189,186.600 284.000 C 187.104 283.783,187.178 283.656,186.800 283.656 C 186.470 283.656,185.840 283.811,185.400 284.000 M182.200 284.800 C 181.696 285.017,181.622 285.144,182.000 285.144 C 182.330 285.144,182.960 284.989,183.400 284.800 C 183.904 284.583,183.978 284.456,183.600 284.456 C 183.270 284.456,182.640 284.611,182.200 284.800 M178.200 285.600 C 177.122 285.874,177.102 285.906,178.000 285.913 C 178.550 285.917,179.450 285.776,180.000 285.600 C 181.344 285.169,179.892 285.169,178.200 285.600 M174.400 286.400 C 173.033 286.688,173.028 286.695,174.200 286.719 C 174.860 286.733,175.760 286.589,176.200 286.400 C 177.162 285.987,176.364 285.987,174.400 286.400 M139.600 287.182 C 139.930 287.405,140.545 287.591,140.967 287.594 C 141.990 287.602,141.671 287.373,140.200 287.044 C 139.324 286.848,139.162 286.885,139.600 287.182 M170.000 287.200 C 168.643 287.486,168.637 287.495,169.800 287.507 C 170.460 287.515,171.450 287.376,172.000 287.200 C 173.312 286.780,171.996 286.780,170.000 287.200 M144.305 288.283 C 144.802 288.379,145.522 288.375,145.905 288.275 C 146.287 288.175,145.880 288.096,145.000 288.101 C 144.120 288.105,143.807 288.187,144.305 288.283 M163.705 288.287 C 164.314 288.379,165.214 288.377,165.705 288.282 C 166.197 288.187,165.700 288.111,164.600 288.114 C 163.500 288.117,163.097 288.195,163.705 288.287 M151.682 289.096 C 153.158 289.173,155.678 289.173,157.282 289.097 C 158.887 289.021,157.680 288.958,154.600 288.958 C 151.520 288.957,150.207 289.019,151.682 289.096 " stroke="none" fill="#86b4dc" fill-rule="evenodd"></path></g></svg>