<svg id="svg" version="1.1" xmlns="http://www.w3.org/2000/svg" xmlns:xlink="http://www.w3.org/1999/xlink" width="400" height="400" viewBox="0, 0, 400,400"><g id="svgg"><path id="path0" d="M206.000 134.400 L 206.000 194.000 265.600 194.000 L 325.200 194.000 325.200 134.400 L 325.200 74.800 265.600 74.800 L 206.000 74.800 206.000 134.400 " stroke="none" fill="#74c444" fill-rule="evenodd"></path><path id="path1" d="M74.800 265.600 L 74.800 325.200 134.400 325.200 L 194.000 325.200 194.000 265.600 L 194.000 206.000 134.400 206.000 L 74.800 206.000 74.800 265.600 " stroke="none" fill="#1c94d4" fill-rule="evenodd"></path><path id="path2" d="M206.000 265.600 L 206.000 325.200 265.600 325.200 L 325.200 325.200 325.200 265.600 L 325.200 206.000 265.600 206.000 L 206.000 206.000 206.000 265.600 " stroke="none" fill="#fcc414" fill-rule="evenodd"></path><path id="path3" d="M74.800 134.400 L 74.800 194.000 134.400 194.000 L 194.000 194.000 194.000 134.400 L 194.000 74.800 134.400 74.800 L 74.800 74.800 74.800 134.400 " stroke="none" fill="#f45424" fill-rule="evenodd"></path><path id="path4" d="" stroke="none" fill="#4cb0a4" fill-rule="evenodd"></path></g></svg>