<svg id="svg" version="1.1" xmlns="http://www.w3.org/2000/svg" xmlns:xlink="http://www.w3.org/1999/xlink" width="400" height="400" viewBox="0, 0, 400,400"><g id="svgg"><path id="path0" d="M321.600 72.000 C 321.600 72.235,320.208 72.400,318.224 72.400 C 316.367 72.400,314.736 72.580,314.600 72.800 C 314.464 73.020,313.013 73.200,311.376 73.200 C 309.659 73.200,308.400 73.369,308.400 73.600 C 308.400 73.835,307.008 74.000,305.024 74.000 C 303.167 74.000,301.536 74.180,301.400 74.400 C 301.264 74.620,299.824 74.800,298.200 74.800 C 296.576 74.800,295.136 74.980,295.000 75.200 C 294.864 75.420,293.233 75.600,291.376 75.600 C 289.392 75.600,288.000 75.765,288.000 76.000 C 288.000 76.233,286.667 76.400,284.800 76.400 C 282.933 76.400,281.600 76.567,281.600 76.800 C 281.600 77.027,280.343 77.215,278.700 77.235 C 275.893 77.269,272.297 77.586,265.200 78.425 C 263.330 78.646,260.450 78.925,258.800 79.044 C 257.150 79.163,255.629 79.427,255.420 79.630 C 255.211 79.834,253.647 80.000,251.944 80.000 C 250.241 80.000,248.736 80.180,248.600 80.400 C 248.464 80.620,246.923 80.800,245.176 80.800 C 243.429 80.800,242.000 80.967,242.000 81.171 C 242.000 81.374,240.515 81.642,238.700 81.766 C 229.959 82.362,228.800 82.486,228.800 82.830 C 228.800 83.034,227.281 83.200,225.424 83.200 C 223.567 83.200,221.936 83.380,221.800 83.600 C 221.664 83.820,220.224 84.000,218.600 84.000 C 216.976 84.000,215.536 84.180,215.400 84.400 C 215.264 84.620,213.734 84.800,212.000 84.800 C 210.266 84.800,208.736 84.980,208.600 85.200 C 208.464 85.420,206.923 85.600,205.176 85.600 C 203.325 85.600,202.000 85.767,202.000 86.000 C 202.000 86.235,200.600 86.400,198.600 86.400 C 196.600 86.400,195.200 86.565,195.200 86.800 C 195.200 87.033,193.867 87.200,192.000 87.200 C 190.133 87.200,188.800 87.367,188.800 87.600 C 188.800 87.820,188.440 88.000,188.000 88.000 C 187.204 88.000,187.200 88.267,187.200 141.000 L 187.200 194.000 257.800 194.000 L 328.400 194.000 328.400 132.800 L 328.400 71.600 325.000 71.600 C 323.000 71.600,321.600 71.765,321.600 72.000 M168.600 90.000 C 168.464 90.220,167.013 90.400,165.376 90.400 C 163.659 90.400,162.400 90.569,162.400 90.800 C 162.400 91.035,161.008 91.200,159.024 91.200 C 157.167 91.200,155.536 91.380,155.400 91.600 C 155.264 91.820,153.824 92.000,152.200 92.000 C 150.576 92.000,149.136 92.180,149.000 92.400 C 148.864 92.620,147.413 92.800,145.776 92.800 C 144.059 92.800,142.800 92.969,142.800 93.200 C 142.800 93.429,141.477 93.615,139.700 93.635 C 136.061 93.676,131.447 94.129,119.600 95.610 C 117.730 95.843,114.760 96.130,113.000 96.246 C 111.240 96.363,109.629 96.625,109.420 96.829 C 109.211 97.033,107.737 97.200,106.144 97.200 C 104.551 97.200,103.136 97.380,103.000 97.600 C 102.864 97.820,101.334 98.000,99.600 98.000 C 97.866 98.000,96.336 98.180,96.200 98.400 C 96.064 98.620,94.523 98.800,92.776 98.800 C 90.925 98.800,89.600 98.967,89.600 99.200 C 89.600 99.435,88.208 99.600,86.224 99.600 C 84.367 99.600,82.736 99.780,82.600 100.000 C 82.464 100.220,81.013 100.400,79.376 100.400 C 77.659 100.400,76.400 100.569,76.400 100.800 C 76.400 101.022,75.333 101.200,74.000 101.200 L 71.600 101.200 71.600 147.600 L 71.600 194.000 123.400 194.000 L 175.200 194.000 175.200 141.800 L 175.200 89.600 172.024 89.600 C 170.277 89.600,168.736 89.780,168.600 90.000 M71.600 252.400 L 71.600 298.800 74.000 298.800 C 75.333 298.800,76.400 298.978,76.400 299.200 C 76.400 299.431,77.659 299.600,79.376 299.600 C 81.013 299.600,82.464 299.780,82.600 300.000 C 82.736 300.220,84.367 300.400,86.224 300.400 C 88.208 300.400,89.600 300.565,89.600 300.800 C 89.600 301.033,90.933 301.200,92.800 301.200 C 94.667 301.200,96.000 301.367,96.000 301.600 C 96.000 301.835,97.392 302.000,99.376 302.000 C 101.233 302.000,102.864 302.180,103.000 302.400 C 103.136 302.620,104.576 302.800,106.200 302.800 C 107.824 302.800,109.264 302.980,109.400 303.200 C 109.536 303.420,111.041 303.600,112.744 303.600 C 114.447 303.600,116.011 303.766,116.220 303.970 C 116.429 304.173,117.950 304.441,119.600 304.564 C 121.250 304.688,123.950 304.888,125.600 305.009 C 127.250 305.130,128.960 305.396,129.400 305.600 C 130.152 305.949,131.489 306.087,139.400 306.636 C 141.160 306.758,142.771 307.025,142.980 307.229 C 143.189 307.433,144.596 307.600,146.106 307.600 C 147.617 307.600,149.160 307.765,149.537 307.966 C 149.913 308.167,152.961 308.462,156.310 308.622 C 159.660 308.781,162.400 309.067,162.400 309.256 C 162.400 309.445,163.739 309.600,165.376 309.600 C 167.013 309.600,168.464 309.780,168.600 310.000 C 168.736 310.220,170.277 310.400,172.024 310.400 L 175.200 310.400 175.200 258.200 L 175.200 206.000 123.400 206.000 L 71.600 206.000 71.600 252.400 M187.200 259.000 C 187.200 311.733,187.204 312.000,188.000 312.000 C 188.440 312.000,188.800 312.180,188.800 312.400 C 188.800 312.633,190.133 312.800,192.000 312.800 C 193.867 312.800,195.200 312.967,195.200 313.200 C 195.200 313.435,196.600 313.600,198.600 313.600 C 200.600 313.600,202.000 313.765,202.000 314.000 C 202.000 314.233,203.325 314.400,205.176 314.400 C 206.923 314.400,208.464 314.580,208.600 314.800 C 208.736 315.020,210.266 315.200,212.000 315.200 C 213.734 315.200,215.264 315.380,215.400 315.600 C 215.536 315.820,216.976 316.000,218.600 316.000 C 220.224 316.000,221.664 316.180,221.800 316.400 C 221.936 316.620,223.567 316.800,225.424 316.800 C 227.408 316.800,228.800 316.965,228.800 317.200 C 228.800 317.431,230.059 317.600,231.776 317.600 C 233.413 317.600,234.864 317.780,235.000 318.000 C 235.136 318.220,236.767 318.400,238.624 318.400 C 240.608 318.400,242.000 318.565,242.000 318.800 C 242.000 319.033,243.325 319.200,245.176 319.200 C 246.923 319.200,248.464 319.380,248.600 319.600 C 248.736 319.820,250.277 320.000,252.024 320.000 C 253.875 320.000,255.200 320.167,255.200 320.400 C 255.200 320.633,256.525 320.800,258.376 320.800 C 260.123 320.800,261.664 320.980,261.800 321.200 C 261.936 321.420,263.441 321.600,265.144 321.600 C 266.847 321.600,268.411 321.766,268.620 321.970 C 268.829 322.173,270.350 322.437,272.000 322.556 C 274.832 322.761,277.156 323.015,285.200 324.002 C 287.070 324.231,291.435 324.620,294.900 324.866 C 298.365 325.112,301.200 325.467,301.200 325.656 C 301.200 325.845,302.820 326.000,304.800 326.000 C 306.933 326.000,308.400 326.163,308.400 326.400 C 308.400 326.631,309.659 326.800,311.376 326.800 C 313.013 326.800,314.464 326.980,314.600 327.200 C 314.736 327.420,316.176 327.600,317.800 327.600 C 319.424 327.600,320.864 327.780,321.000 328.000 C 321.136 328.220,322.857 328.400,324.824 328.400 L 328.400 328.400 328.400 267.200 L 328.400 206.000 257.800 206.000 L 187.200 206.000 187.200 259.000 " stroke="none" fill="#04acfc" fill-rule="evenodd"></path><path id="path1" d="" stroke="none" fill="#08acfc" fill-rule="evenodd"></path><path id="path2" d="" stroke="none" fill="#08acfc" fill-rule="evenodd"></path><path id="path3" d="" stroke="none" fill="#08acfc" fill-rule="evenodd"></path><path id="path4" d="" stroke="none" fill="#08acfc" fill-rule="evenodd"></path></g></svg>